<svg width="1257" height="329" viewBox="0 0 1257 329" fill="none" xmlns="http://www.w3.org/2000/svg">
<path d="M83.1395 40.088H112.707V56.792H83.1395V40.088ZM106.467 45.08H89.4275V51.752H106.467V45.08ZM77.9555 15.176H84.2915V33.608H77.9555V15.176ZM77.9555 31.304H81.6515C87.9395 31.304 94.4195 30.92 101.187 29.576L101.859 34.856C94.8995 36.248 88.1795 36.632 81.6515 36.632H77.9555V31.304ZM106.323 12.824H112.707V38.168H106.323V12.824ZM95.5715 20.216H107.715V25.352H95.5715V20.216ZM151.248 12.776H157.632V57.368H151.248V12.776ZM143.76 26.12H155.184V31.304H143.76V26.12ZM143.76 35.336H155.184V40.52H143.76V35.336ZM130.656 24.344H135.648V26.648C135.648 36.008 131.616 45.464 123.552 49.064L120.144 44.168C127.344 40.856 130.656 33.32 130.656 26.648V24.344ZM132.048 24.344H136.992V26.648C136.992 33.08 140.4 40.328 147.6 43.544L144.192 48.44C136.08 44.936 132.048 35.768 132.048 26.648V24.344ZM121.632 20.072H145.872V25.112H121.632V20.072ZM130.656 13.832H137.04V22.664H130.656V13.832ZM198.428 29.624H206.252V34.856H198.428V29.624ZM193.676 12.776H200.108V57.224H193.676V12.776ZM166.604 17.048H172.988V44.648H166.604V17.048ZM166.604 41.096H170.444C176.78 41.096 183.644 40.664 190.796 39.224L191.468 44.456C184.124 45.992 176.972 46.376 170.444 46.376H166.604V41.096ZM215.128 24.824H245.944V29.864H215.128V24.824ZM210.136 34.472H250.408V39.56H210.136V34.472ZM215.128 14.408H221.464V27.32H215.128V14.408ZM214.696 51.224H246.184V56.312H214.696V51.224ZM214.696 43.112H221.08V52.568H214.696V43.112ZM289.546 22.28H299.866V27.416H289.546V22.28ZM277.018 15.56H282.154V20.36C282.154 29.432 278.362 37.16 269.962 40.232L266.602 35.24C273.946 32.792 277.018 26.648 277.018 20.36V15.56ZM278.41 15.56H283.498V20.408C283.498 26.12 286.426 31.832 293.434 34.232L290.026 39.128C282.058 36.248 278.41 28.808 278.41 20.408V15.56ZM297.658 12.872H304.042V45.656H297.658V12.872ZM274.618 51.416H305.002V56.504H274.618V51.416ZM274.618 42.344H281.05V54.248H274.618V42.344ZM313.206 33.08H316.278C322.71 33.08 326.838 32.984 331.734 32.168L332.31 37.256C327.222 38.12 322.902 38.264 316.278 38.264H313.206V33.08ZM313.206 15.8H330.726V20.888H319.35V35.912H313.206V15.8ZM317.526 24.488H330.246V29.288H317.526V24.488ZM343.542 12.824H349.59V39.944H343.542V12.824ZM338.214 23.72H345.27V28.808H338.214V23.72ZM334.038 13.64H339.99V39.656H334.038V13.64ZM319.062 41.864H349.59V57.272H343.254V46.952H319.062V41.864ZM367.298 19.832H372.386V24.824C372.386 35.096 368.21 45.128 359.858 48.92L356.258 43.88C363.698 40.568 367.298 32.36 367.298 24.824V19.832ZM368.738 19.832H373.778V24.824C373.778 32.024 377.33 39.704 384.77 42.776L381.314 47.816C372.866 44.168 368.738 34.712 368.738 24.824V19.832ZM358.034 17.096H382.946V22.328H358.034V17.096ZM387.074 12.824H393.506V57.272H387.074V12.824ZM430.196 35.144H436.58V42.968H430.196V35.144ZM413.3 33.032H453.476V38.072H413.3V33.032ZM433.316 41.24C442.916 41.24 448.724 44.12 448.724 49.256C448.724 54.392 442.916 57.272 433.316 57.272C423.668 57.272 417.86 54.392 417.86 49.256C417.86 44.12 423.668 41.24 433.316 41.24ZM433.316 46.04C427.364 46.04 424.34 47.048 424.34 49.256C424.34 51.416 427.364 52.472 433.316 52.472C439.268 52.472 442.292 51.416 442.292 49.256C442.292 47.048 439.268 46.04 433.316 46.04ZM428.996 17H434.66V18.104C434.66 24.776 428.66 30.248 417.188 31.304L414.98 26.312C424.724 25.496 428.996 21.56 428.996 18.104V17ZM432.116 17H437.78V18.104C437.78 21.608 442.004 25.496 451.796 26.312L449.588 31.304C438.164 30.248 432.116 24.824 432.116 18.104V17ZM416.948 14.648H449.876V19.688H416.948V14.648ZM475.936 29.192H483.232V34.328H475.936V29.192ZM490.288 12.824H496.384V57.272H490.288V12.824ZM481.216 13.496H487.216V55.256H481.216V13.496ZM468.16 15.944C474.064 15.944 477.856 22.04 477.856 32.072C477.856 42.152 474.064 48.248 468.16 48.248C462.304 48.248 458.56 42.152 458.56 32.072C458.56 22.04 462.304 15.944 468.16 15.944ZM468.16 21.944C465.76 21.944 464.368 25.304 464.368 32.072C464.368 38.888 465.76 42.2 468.16 42.2C470.656 42.2 472.048 38.888 472.048 32.072C472.048 25.304 470.656 21.944 468.16 21.944Z" fill="#38200B" fill-opacity="0.8"/>
<path d="M582.637 236.832H593.069V243.808H582.637V236.832ZM576.301 214.368H584.877V273.632H576.301V214.368ZM540.205 220.064H548.717V256.864H540.205V220.064ZM540.205 252.128H545.325C553.773 252.128 562.925 251.552 572.461 249.632L573.357 256.608C563.565 258.656 554.029 259.168 545.325 259.168H540.205V252.128ZM598.248 240.992H651.944V247.2H598.248V240.992ZM604.264 250.144H645.544V264.224H612.84V269.28H604.392V258.848H637.16V255.904H604.264V250.144ZM604.392 267.488H647.208V273.248H604.392V267.488ZM604.84 215.456H645.416V229.408H613.352V234.272H604.904V224.096H637.032V221.152H604.84V215.456ZM604.904 232.48H646.504V238.24H604.904V232.48ZM693.056 216.8C702.08 216.8 708.608 221.984 708.608 229.472C708.608 236.832 702.08 242.144 693.056 242.144C684.096 242.144 677.568 236.832 677.568 229.472C677.568 221.984 684.096 216.8 693.056 216.8ZM693.056 223.712C688.768 223.712 685.696 225.76 685.696 229.472C685.696 233.12 688.768 235.168 693.056 235.168C697.408 235.168 700.48 233.12 700.48 229.472C700.48 225.76 697.408 223.712 693.056 223.712ZM689.088 248.032H697.6V271.904H689.088V248.032ZM715.008 214.432H723.456V273.696H715.008V214.432ZM675.072 252.512L674.048 245.6C684.416 245.6 699.072 245.472 711.616 243.552L712.192 249.76C699.328 252.32 685.312 252.448 675.072 252.512ZM771.835 214.496H780.347V258.784H771.835V214.496ZM777.915 232.544H788.219V239.52H777.915V232.544ZM733.691 220.64H768.571V227.296H733.691V220.64ZM751.163 229.408C759.675 229.408 765.691 234.08 765.691 240.864C765.691 247.648 759.675 252.256 751.163 252.256C742.587 252.256 736.571 247.648 736.571 240.864C736.571 234.08 742.587 229.408 751.163 229.408ZM751.163 235.872C747.387 235.872 744.763 237.664 744.763 240.864C744.763 244.064 747.387 245.792 751.163 245.792C754.939 245.792 757.563 244.064 757.563 240.864C757.563 237.664 754.939 235.872 751.163 235.872ZM746.875 214.368H755.387V223.904H746.875V214.368ZM742.139 265.888H782.459V272.672H742.139V265.888ZM742.139 255.456H750.651V268.832H742.139V255.456ZM839.57 227.04H853.33V233.888H839.57V227.04ZM822.866 218.08H829.714V224.48C829.714 236.576 824.658 246.88 813.458 250.976L808.978 244.32C818.77 241.056 822.866 232.864 822.866 224.48V218.08ZM824.722 218.08H831.506V224.544C831.506 232.16 835.41 239.776 844.754 242.976L840.21 249.504C829.586 245.664 824.722 235.744 824.722 224.544V218.08ZM850.386 214.496H858.898V258.208H850.386V214.496ZM819.666 265.888H860.178V272.672H819.666V265.888ZM819.666 253.792H828.242V269.664H819.666V253.792ZM871.117 241.44H875.213C883.789 241.44 889.293 241.312 895.821 240.224L896.589 247.008C889.805 248.16 884.045 248.352 875.213 248.352H871.117V241.44ZM871.117 218.4H894.477V225.184H879.309V245.216H871.117V218.4ZM876.877 229.984H893.837V236.384H876.877V229.984ZM911.565 214.432H919.629V250.592H911.565V214.432ZM904.461 228.96H913.869V235.744H904.461V228.96ZM898.893 215.52H906.829V250.208H898.893V215.52ZM878.925 253.152H919.629V273.696H911.181V259.936H878.925V253.152Z" fill="url(#paint0_linear_1644_341)"/>
<path d="M958.808 227.776H965.24V272.368H958.808V227.776ZM941.288 230.896C948.008 230.896 952.952 237.04 952.952 246.736C952.952 256.528 948.008 262.672 941.288 262.672C934.568 262.672 929.624 256.528 929.624 246.736C929.624 237.04 934.568 230.896 941.288 230.896ZM941.288 236.704C937.976 236.704 935.72 240.208 935.72 246.736C935.72 253.36 937.976 256.912 941.288 256.912C944.6 256.912 946.808 253.36 946.808 246.736C946.808 240.208 944.6 236.704 941.288 236.704ZM995.018 254.8H999.818V256.288C999.818 263.008 996.842 269.152 989.882 271.648L986.762 266.992C992.57 265.024 995.018 260.608 995.018 256.288V254.8ZM996.65 254.8H1001.21V256.288C1001.21 260.608 1003.37 265.12 1008.79 267.376L1006.25 272.08C999.194 269.44 996.65 262.816 996.65 256.288V254.8ZM1011.24 254.8H1015.8V256.288C1015.8 262.432 1013.16 269.344 1006.25 272.08L1003.61 267.376C1009.03 264.928 1011.24 260.224 1011.24 256.288V254.8ZM1012.73 254.8H1017.53V256.288C1017.53 260.896 1019.93 265.168 1025.79 266.992L1022.67 271.648C1015.61 269.248 1012.73 263.296 1012.73 256.288V254.8ZM1015.56 227.872H1021.99V252.976H1015.56V227.872ZM997.802 230.128C1004.71 230.128 1009.85 234.544 1009.85 240.784C1009.85 246.976 1004.71 251.392 997.802 251.392C990.89 251.392 985.706 246.976 985.706 240.784C985.706 234.544 990.89 230.128 997.802 230.128ZM997.802 235.408C994.442 235.408 991.946 237.376 991.946 240.784C991.946 244.144 994.442 246.112 997.802 246.112C1001.16 246.112 1003.61 244.144 1003.61 240.784C1003.61 237.376 1001.16 235.408 997.802 235.408ZM1058.33 227.776H1064.76V272.368H1058.33V227.776ZM1063.32 244.24H1071.19V249.472H1063.32V244.24ZM1031.64 256.384H1035.38C1042.87 256.384 1048.77 256.144 1055.3 254.992L1055.93 260.272C1049.21 261.472 1043.11 261.664 1035.38 261.664H1031.64V256.384ZM1031.64 231.904H1052.37V237.04H1037.97V258.928H1031.64V231.904Z" fill="#38200B" fill-opacity="0.8"/>
<path d="M639.385 31.36H644.705V39.8H639.385V31.36ZM642.065 12.4C649.985 12.4 655.905 16.44 655.905 22.6C655.905 28.84 649.985 32.84 642.065 32.84C634.145 32.84 628.225 28.84 628.225 22.6C628.225 16.44 634.145 12.4 642.065 12.4ZM642.065 16.6C636.985 16.6 633.465 18.84 633.465 22.6C633.465 26.44 636.985 28.64 642.065 28.64C647.145 28.64 650.665 26.44 650.665 22.6C650.665 18.84 647.145 16.6 642.065 16.6ZM625.345 38.96H658.865V43.28H625.345V38.96ZM688.102 10.52H693.462V47.68H688.102V10.52ZM664.942 34.4H668.142C675.942 34.4 680.342 34.24 685.302 33.32L685.782 37.68C680.782 38.68 676.102 38.84 668.142 38.84H664.942V34.4ZM664.942 13.8H682.822V18.08H670.222V36.08H664.942V13.8ZM714.178 31.36H719.498V39.8H714.178V31.36ZM716.858 12.4C724.778 12.4 730.698 16.44 730.698 22.6C730.698 28.84 724.778 32.84 716.858 32.84C708.938 32.84 703.018 28.84 703.018 22.6C703.018 16.44 708.938 12.4 716.858 12.4ZM716.858 16.6C711.778 16.6 708.258 18.84 708.258 22.6C708.258 26.44 711.778 28.64 716.858 28.64C721.938 28.64 725.458 26.44 725.458 22.6C725.458 18.84 721.938 16.6 716.858 16.6ZM700.138 38.96H733.658V43.28H700.138V38.96Z" fill="#38200B" fill-opacity="0.4"/>
<path d="M782.403 15.36H793.363V19.6H782.403V15.36ZM782.403 23.56H793.363V27.84H782.403V23.56ZM776.243 12.48C781.763 12.48 786.003 16.32 786.003 21.56C786.003 26.8 781.763 30.64 776.243 30.64C770.683 30.64 766.443 26.8 766.443 21.56C766.443 16.32 770.683 12.48 776.243 12.48ZM776.243 17C773.523 17 771.523 18.64 771.523 21.56C771.523 24.44 773.523 26.16 776.243 26.16C778.963 26.16 780.963 24.44 780.963 21.56C780.963 18.64 778.963 17 776.243 17ZM791.683 10.52H797.003V32.2H791.683V10.52ZM784.443 32.96C792.243 32.96 797.123 35.68 797.123 40.28C797.123 44.88 792.243 47.56 784.443 47.56C776.643 47.56 771.763 44.88 771.763 40.28C771.763 35.68 776.643 32.96 784.443 32.96ZM784.443 37.08C779.603 37.08 777.003 38.12 777.003 40.28C777.003 42.44 779.603 43.48 784.443 43.48C789.323 43.48 791.883 42.44 791.883 40.28C791.883 38.12 789.323 37.08 784.443 37.08ZM811.52 12.52H815.88V15.8C815.88 23.16 812.68 29.64 805.64 32.08L802.8 27.88C809 25.8 811.52 20.84 811.52 15.8V12.52ZM812.6 12.52H816.92V16.32C816.92 20.76 819.4 25.08 825.2 26.88L822.44 31C815.76 28.76 812.6 23 812.6 16.32V12.52ZM827.24 10.52H832.56V32.4H827.24V10.52ZM831.08 19.08H837.48V23.48H831.08V19.08ZM820.48 33.24C828.16 33.24 833 35.92 833 40.4C833 44.92 828.16 47.56 820.48 47.56C812.76 47.56 807.92 44.92 807.92 40.4C807.92 35.92 812.76 33.24 820.48 33.24ZM820.48 37.36C815.76 37.36 813.2 38.36 813.2 40.4C813.2 42.48 815.76 43.44 820.48 43.44C825.2 43.44 827.72 42.48 827.72 40.4C827.72 38.36 825.2 37.36 820.48 37.36Z" fill="#38200B" fill-opacity="0.4"/>
<path d="M884.705 10.48H890.065V47.64H884.705V10.48ZM870.105 13.08C875.705 13.08 879.825 18.2 879.825 26.28C879.825 34.44 875.705 39.56 870.105 39.56C864.505 39.56 860.385 34.44 860.385 26.28C860.385 18.2 864.505 13.08 870.105 13.08ZM870.105 17.92C867.345 17.92 865.465 20.84 865.465 26.28C865.465 31.8 867.345 34.76 870.105 34.76C872.865 34.76 874.705 31.8 874.705 26.28C874.705 20.84 872.865 17.92 870.105 17.92ZM898.542 13.84H916.342V38.76H898.542V13.84ZM911.142 18H903.782V34.56H911.142V18ZM922.102 10.48H927.462V47.64H922.102V10.48ZM943.018 16.36H947.258V20.52C947.258 29.08 943.778 37.44 936.818 40.6L933.818 36.4C940.018 33.64 943.018 26.8 943.018 20.52V16.36ZM944.218 16.36H948.418V20.52C948.418 26.52 951.378 32.92 957.578 35.48L954.698 39.68C947.658 36.64 944.218 28.76 944.218 20.52V16.36ZM935.298 14.08H956.058V18.44H935.298V14.08ZM959.498 10.52H964.858V47.56H959.498V10.52Z" fill="#38200B" fill-opacity="0.4"/>
<path d="M800.945 89.92H806.585V94.16H800.945V89.92ZM786.745 97.88H789.265C794.545 97.88 797.945 97.76 801.985 97.08L802.465 101.24C798.265 101.96 794.745 102.04 789.265 102.04H786.745V97.88ZM786.745 82.96H800.705V87.16H791.865V99.72H786.745V82.96ZM790.345 90.44H799.345V94.44H790.345V90.44ZM791.385 105.12H816.865V117.56H811.585V109.32H791.385V105.12ZM811.825 80.52H816.865V103.64H811.825V80.52ZM804.585 81.24H809.545V103.4H804.585V81.24ZM836.462 82.64H841.102V85.32C841.102 93.36 835.382 100.48 825.782 102.36L823.502 97.96C831.862 96.52 836.462 90.64 836.462 85.32V82.64ZM837.542 82.64H842.142V85.32C842.142 90.76 846.702 96.52 855.102 97.96L852.822 102.36C843.222 100.48 837.542 93.48 837.542 85.32V82.64ZM822.742 108.72H856.262V113.04H822.742V108.72ZM864.058 99.6H890.098V103.76H864.058V99.6ZM860.138 109H893.658V113.32H860.138V109ZM864.058 83.2H889.778V87.48H869.458V100.76H864.058V83.2ZM867.818 91.36H888.938V95.48H867.818V91.36Z" fill="#38200B" fill-opacity="0.4"/>
<path d="M535.496 152.98V147.909H559.388V152.98H550.482V177H544.402V152.98H535.496ZM562.815 152.98V147.909H586.707V152.98H577.801V177H571.721V152.98H562.815ZM607.023 156.276C606.909 155.13 606.422 154.24 605.56 153.605C604.698 152.971 603.529 152.653 602.051 152.653C601.048 152.653 600.2 152.795 599.509 153.08C598.817 153.354 598.287 153.738 597.918 154.23C597.558 154.723 597.378 155.281 597.378 155.906C597.359 156.427 597.468 156.882 597.705 157.27C597.951 157.658 598.287 157.994 598.713 158.278C599.139 158.553 599.632 158.795 600.191 159.003C600.749 159.202 601.346 159.372 601.98 159.514L604.594 160.139C605.863 160.423 607.028 160.802 608.088 161.276C609.149 161.749 610.067 162.331 610.844 163.023C611.62 163.714 612.222 164.528 612.648 165.466C613.084 166.403 613.306 167.478 613.316 168.69C613.306 170.471 612.852 172.014 611.952 173.321C611.062 174.618 609.774 175.627 608.088 176.347C606.412 177.057 604.39 177.412 602.023 177.412C599.674 177.412 597.629 177.052 595.887 176.332C594.154 175.613 592.799 174.547 591.824 173.136C590.858 171.716 590.352 169.959 590.304 167.866H596.256C596.322 168.842 596.602 169.656 597.094 170.31C597.596 170.954 598.263 171.441 599.097 171.773C599.94 172.095 600.891 172.256 601.952 172.256C602.994 172.256 603.898 172.104 604.665 171.801C605.442 171.498 606.043 171.077 606.469 170.537C606.895 169.997 607.108 169.377 607.108 168.676C607.108 168.023 606.914 167.473 606.526 167.028C606.147 166.583 605.588 166.205 604.85 165.892C604.12 165.58 603.226 165.295 602.165 165.04L598.997 164.244C596.545 163.648 594.608 162.715 593.188 161.446C591.767 160.177 591.062 158.468 591.071 156.318C591.062 154.557 591.531 153.018 592.477 151.702C593.434 150.385 594.745 149.358 596.412 148.619C598.079 147.881 599.973 147.511 602.094 147.511C604.253 147.511 606.138 147.881 607.747 148.619C609.367 149.358 610.626 150.385 611.526 151.702C612.425 153.018 612.889 154.543 612.918 156.276H607.023Z" fill="#38200B" fill-opacity="0.4"/>
<path d="M702.423 87.36H706.663V91.52C706.663 100.08 703.183 108.44 696.223 111.6L693.223 107.4C699.423 104.64 702.423 97.8 702.423 91.52V87.36ZM703.623 87.36H707.823V91.52C707.823 97.52 710.783 103.92 716.983 106.48L714.103 110.68C707.063 107.64 703.623 99.76 703.623 91.52V87.36ZM694.703 85.08H715.463V89.44H694.703V85.08ZM718.903 81.52H724.263V118.56H718.903V81.52ZM734.82 98.04H760.86V102.28H734.82V98.04ZM730.94 110.04H764.46V114.4H730.94V110.04ZM744.98 99.96H750.3V111.44H744.98V99.96ZM734.82 84.04H760.58V88.32H740.14V99.88H734.82V84.04Z" fill="#38200B" fill-opacity="0.4"/>
<path d="M609.885 93.2756C609.772 92.1297 609.284 91.2396 608.422 90.6051C607.561 89.9706 606.391 89.6534 604.914 89.6534C603.91 89.6534 603.063 89.7955 602.371 90.0795C601.68 90.3542 601.15 90.7377 600.78 91.2301C600.42 91.7225 600.241 92.2812 600.241 92.9062C600.222 93.4271 600.331 93.8816 600.567 94.2699C600.813 94.6581 601.15 94.9943 601.576 95.2784C602.002 95.553 602.494 95.7945 603.053 96.0028C603.612 96.2017 604.208 96.3722 604.843 96.5142L607.456 97.1392C608.725 97.4233 609.89 97.8021 610.951 98.2756C612.011 98.7491 612.93 99.3314 613.706 100.023C614.483 100.714 615.084 101.528 615.51 102.466C615.946 103.403 616.169 104.478 616.178 105.69C616.169 107.471 615.714 109.014 614.814 110.321C613.924 111.618 612.636 112.627 610.951 113.347C609.275 114.057 607.253 114.412 604.885 114.412C602.537 114.412 600.492 114.052 598.749 113.332C597.016 112.613 595.662 111.547 594.687 110.136C593.721 108.716 593.214 106.959 593.167 104.866H599.118C599.185 105.842 599.464 106.656 599.956 107.31C600.458 107.954 601.126 108.441 601.959 108.773C602.802 109.095 603.754 109.256 604.814 109.256C605.856 109.256 606.76 109.104 607.527 108.801C608.304 108.498 608.905 108.077 609.331 107.537C609.758 106.997 609.971 106.377 609.971 105.676C609.971 105.023 609.777 104.473 609.388 104.028C609.009 103.583 608.451 103.205 607.712 102.892C606.983 102.58 606.088 102.295 605.027 102.04L601.86 101.244C599.407 100.648 597.471 99.715 596.05 98.446C594.63 97.1771 593.924 95.4678 593.934 93.3182C593.924 91.5568 594.393 90.018 595.34 88.7017C596.296 87.3854 597.608 86.358 599.275 85.6193C600.941 84.8807 602.835 84.5114 604.956 84.5114C607.116 84.5114 609 84.8807 610.61 85.6193C612.229 86.358 613.489 87.3854 614.388 88.7017C615.288 90.018 615.752 91.5426 615.78 93.2756H609.885ZM619.807 89.9801V84.9091H643.699V89.9801H634.793V114H628.713V89.9801H619.807ZM647.126 89.9801V84.9091H671.018V89.9801H662.112V114H656.032V89.9801H647.126Z" fill="#38200B" fill-opacity="0.4"/>
<path d="M644.043 155.16H669.803V159.4H644.043V155.16ZM644.043 145.2H649.363V157.08H644.043V145.2ZM640.043 163.48H673.523V167.76H640.043V163.48ZM647.643 165H652.963V180.56H647.643V165ZM660.563 165H665.883V180.56H660.563V165ZM691.16 145.64H695.8V148.32C695.8 156.36 690.08 163.48 680.48 165.36L678.2 160.96C686.56 159.52 691.16 153.64 691.16 148.32V145.64ZM692.24 145.64H696.84V148.32C696.84 153.76 701.4 159.52 709.8 160.96L707.52 165.36C697.92 163.48 692.24 156.48 692.24 148.32V145.64ZM677.44 171.72H710.96V176.04H677.44V171.72Z" fill="#38200B" fill-opacity="0.4"/>
<path d="M762.843 143.52H768.163V162H762.843V143.52ZM766.003 150.6H773.043V154.96H766.003V150.6ZM743.683 163.48H768.163V173.64H749.043V178.04H743.763V169.8H762.923V167.56H743.683V163.48ZM743.763 176H769.243V180.16H743.763V176ZM749.123 144.6C754.803 144.6 759.003 148.08 759.003 153C759.003 157.88 754.803 161.4 749.123 161.4C743.483 161.4 739.243 157.88 739.243 153C739.243 148.08 743.483 144.6 749.123 144.6ZM749.123 148.88C746.403 148.88 744.403 150.4 744.403 153C744.403 155.6 746.403 157.16 749.123 157.16C751.883 157.16 753.883 155.6 753.883 153C753.883 150.4 751.883 148.88 749.123 148.88ZM800.24 143.56H805.56V165.52H800.24V143.56ZM804.04 152.24H810.48V156.64H804.04V152.24ZM781.44 167.12H805.56V180.16H781.44V167.12ZM800.36 171.28H786.68V175.96H800.36V171.28ZM777.72 159.92H780.84C788.12 159.92 792.6 159.8 797.72 158.84L798.2 163.04C793 164.04 788.32 164.24 780.84 164.24H777.72V159.92ZM777.68 145.36H794.6V156.64H783V162.28H777.72V152.68H789.36V149.6H777.68V145.36Z" fill="#38200B" fill-opacity="0.4"/>
<path d="M844.585 146.16H849.825V148.6H864.265V146.16H869.545V158.56H844.585V146.16ZM849.825 152.48V154.64H864.265V152.48H849.825ZM840.305 160.56H873.785V164.72H840.305V160.56ZM844.145 166.84H869.745V176.24H849.425V179.6H844.185V172.6H864.505V170.72H844.145V166.84ZM844.185 178.36H870.705V182.32H844.185V178.36ZM877.742 174.16H911.262V178.48H877.742V174.16ZM891.782 167.16H897.102V175.92H891.782V167.16ZM881.502 147.92H907.502V160.24H886.862V166.48H881.582V156.08H902.222V152.12H881.502V147.92ZM881.582 164.36H908.342V168.64H881.582V164.36ZM918.538 148.92H942.018V153.12H918.538V148.92ZM915.138 173.4H948.618V177.72H915.138V173.4ZM939.218 148.92H944.498V153.32C944.498 158.52 944.498 163.56 943.178 171.16L937.858 170.72C939.218 163.6 939.218 158.32 939.218 153.32V148.92Z" fill="#38200B" fill-opacity="0.4"/>
<path d="M940.083 80.52H945.403V109.48H940.083V80.52ZM943.523 92.64H950.043V96.96H943.523V92.64ZM920.683 112.68H946.643V116.92H920.683V112.68ZM920.683 107.6H926.043V113.92H920.683V107.6ZM924.403 98.32H929.723V103.72H924.403V98.32ZM916.163 105.88L915.563 101.8C922.003 101.8 930.923 101.68 938.443 100.56L938.843 104.2C931.163 105.64 922.483 105.8 916.163 105.88ZM916.523 83.48H937.523V87.32H916.523V83.48ZM927.043 88.28C932.483 88.28 936.043 90.44 936.043 94.04C936.043 97.56 932.483 99.76 927.043 99.76C921.603 99.76 918.003 97.56 918.003 94.04C918.003 90.44 921.603 88.28 927.043 88.28ZM927.043 91.84C924.523 91.84 923.043 92.56 923.043 94.04C923.043 95.44 924.523 96.16 927.043 96.16C929.523 96.16 931.003 95.44 931.003 94.04C931.003 92.56 929.523 91.84 927.043 91.84ZM924.403 80.36H929.723V85.12H924.403V80.36ZM961.76 96.92H967.04V104.04H961.76V96.92ZM973.32 96.92H978.6V104.04H973.32V96.92ZM970.16 80.88C978.6 80.88 983.56 83.08 983.56 87.16C983.56 91.24 978.6 93.48 970.16 93.48C961.68 93.48 956.76 91.24 956.76 87.16C956.76 83.08 961.68 80.88 970.16 80.88ZM970.16 84.76C964.8 84.76 962.28 85.52 962.28 87.16C962.28 88.88 964.8 89.6 970.16 89.6C975.52 89.6 978.04 88.88 978.04 87.16C978.04 85.52 975.52 84.76 970.16 84.76ZM953.4 94.96H986.88V99.12H953.4V94.96ZM957.24 101.68H982.84V111.2H962.52V114.48H957.28V107.52H977.6V105.64H957.24V101.68ZM957.28 113.32H983.8V117.32H957.28V113.32Z" fill="#38200B" fill-opacity="0.4"/>
<path d="M556.343 11.52H561.663V29.8H556.343V11.52ZM560.183 18.4H566.583V22.76H560.183V18.4ZM533.983 13.12H539.303V27.48H533.983V13.12ZM533.983 24.44H537.103C542.063 24.44 547.543 24.08 553.343 22.96L553.943 27.28C547.943 28.48 542.303 28.8 537.103 28.8H533.983V24.44ZM537.183 31.32H561.663V41.6H542.583V45.96H537.263V37.64H556.343V35.48H537.183V31.32ZM537.263 43.96H562.743V48.16H537.263V43.96ZM596.1 11.52H601.46V48.56H596.1V11.52ZM574.5 14.44H578.34V20.68C578.34 28.4 577.42 36.36 572.5 40.36L569.1 36.68C573.82 33 574.5 26.56 574.5 20.68V14.44ZM575.74 14.44H579.5V20.68C579.5 26.32 580.14 33.08 584.94 36.96L582.06 40.88C576.62 36.76 575.74 28.08 575.74 20.68V14.44ZM584.66 14.44H588.42V20.68C588.42 28.16 587.5 36.8 582.06 40.88L579.18 36.96C584.02 33.12 584.66 26.4 584.66 20.68V14.44ZM585.86 14.44H589.7V20.68C589.7 26.6 590.42 33.04 595.1 36.68L591.9 40.56C586.78 36.56 585.86 28.44 585.86 20.68V14.44Z" fill="#38200B" fill-opacity="0.4"/>
<path d="M540.342 87.8H544.302V88.96C544.302 94.88 541.902 100.2 536.102 102.36L533.662 98.44C538.342 96.72 540.342 92.92 540.342 88.96V87.8ZM541.422 87.8H545.342V88.96C545.342 92.68 547.382 96.24 552.022 97.84L549.662 101.76C543.822 99.76 541.422 94.64 541.422 88.96V87.8ZM534.702 84.68H550.942V88.84H534.702V84.68ZM540.342 80.88H545.342V86.6H540.342V80.88ZM560.222 80.56H565.262V103.24H560.222V80.56ZM555.782 89.8H561.662V94.04H555.782V89.8ZM552.502 81.12H557.462V103.08H552.502V81.12ZM539.822 104.8H565.262V117.56H559.982V109.04H539.822V104.8Z" fill="#38200B" fill-opacity="0.4"/>
<defs>
<linearGradient id="paint0_linear_1644_341" x1="351" y1="264" x2="1009.91" y2="264" gradientUnits="userSpaceOnUse">
<stop stop-color="#8D5725"/>
<stop offset="1" stop-color="#DD0A0A"/>
</linearGradient>
</defs>
</svg>
