<svg width="1226" height="388" viewBox="0 0 1226 388" fill="none" xmlns="http://www.w3.org/2000/svg">
<g filter="url(#filter0_d_1651_342)">
<path d="M53.912 180.648H85.016V185.736H53.912V180.648ZM48.968 190.776H89.192V195.912H48.968V190.776ZM65.672 193.848H72.056V211.272H65.672V193.848ZM53.912 168.792H60.296V183.048H53.912V168.792ZM104.068 171.24H109.252V174.072C109.252 182.424 105.316 190.152 96.7723 192.936L93.5563 187.896C100.9 185.496 104.068 179.64 104.068 174.072V171.24ZM105.412 171.24H110.548V174.072C110.548 179.256 113.572 184.728 120.58 187.08L117.46 192.072C109.204 189.336 105.412 181.944 105.412 174.072V171.24ZM117.988 177.432H126.436V182.616H117.988V177.432ZM95.2843 169.272H119.188V174.312H95.2843V169.272ZM100.708 195.288H130.996V211.272H124.612V200.376H100.708V195.288ZM124.612 166.824H130.996V193.272H124.612V166.824ZM181.126 166.824H187.558V211.272H181.126V166.824ZM168.022 171.432H174.358C174.358 185.016 169.75 196.152 153.958 203.784L150.646 198.696C163.414 192.552 168.022 184.488 168.022 172.584V171.432ZM152.998 171.432H171.046V176.472H152.998V171.432ZM215.25 175.896H227.346V181.032H215.25V175.896ZM215.25 189.672H227.346V194.808H215.25V189.672ZM207.57 169.896C214.194 169.896 219.042 176.04 219.042 185.736C219.042 195.528 214.194 201.672 207.57 201.672C200.898 201.672 196.098 195.528 196.098 185.736C196.098 176.04 200.898 169.896 207.57 169.896ZM207.57 175.704C204.354 175.704 202.146 179.208 202.146 185.736C202.146 192.36 204.354 195.912 207.57 195.912C210.834 195.912 212.994 192.36 212.994 185.736C212.994 179.208 210.834 175.704 207.57 175.704ZM226.338 166.776H232.674V211.368H226.338V166.776ZM250.238 173.832H255.278V178.824C255.278 188.856 251.054 199.08 242.894 202.92L239.294 197.88C246.638 194.424 250.238 186.12 250.238 178.824V173.832ZM251.582 173.832H256.622V178.824C256.622 185.544 260.078 193.416 267.374 196.776L263.87 201.816C255.71 198.024 251.582 188.28 251.582 178.824V173.832ZM241.022 171.096H265.406V176.328H241.022V171.096ZM268.67 166.824H275.102V211.272H268.67V166.824ZM273.662 183.768H281.534V189.048H273.662V183.768ZM313.712 168.12H319.328V170.184C319.328 178.728 312.608 185.976 300.944 187.704L298.448 182.568C308.672 181.224 313.712 175.416 313.712 170.184V168.12ZM314.912 168.12H320.48V170.184C320.48 175.368 325.568 181.224 335.744 182.568L333.296 187.704C321.632 185.976 314.912 178.728 314.912 170.184V168.12ZM313.76 195H320.096V211.272H313.76V195ZM297.008 190.968H337.184V196.152H297.008V190.968Z" fill="#FF4040"/>
</g>
<g filter="url(#filter1_d_1651_342)">
<path d="M184.705 104.955C179.455 104.955 174.784 104.102 170.693 102.398C166.625 100.67 163.432 98.3182 161.114 95.3409C158.795 92.3636 157.636 88.9886 157.636 85.2159C157.636 82.3068 158.295 79.6364 159.614 77.2045C160.955 74.75 162.773 72.7159 165.068 71.1023C167.364 69.4659 169.932 68.4205 172.773 67.9659V67.4886C169.045 66.7386 166.023 64.9318 163.705 62.0682C161.386 59.1818 160.227 55.8295 160.227 52.0114C160.227 48.3977 161.284 45.1818 163.398 42.3636C165.511 39.5227 168.409 37.2955 172.091 35.6818C175.795 34.0455 180 33.2273 184.705 33.2273C189.409 33.2273 193.602 34.0455 197.284 35.6818C200.989 37.3182 203.898 39.5568 206.011 42.3977C208.125 45.2159 209.193 48.4205 209.216 52.0114C209.193 55.8523 208.011 59.2045 205.67 62.0682C203.33 64.9318 200.33 66.7386 196.67 67.4886V67.9659C199.466 68.4205 202 69.4659 204.273 71.1023C206.568 72.7159 208.386 74.75 209.727 77.2045C211.091 79.6364 211.784 82.3068 211.807 85.2159C211.784 88.9886 210.614 92.3636 208.295 95.3409C205.977 98.3182 202.773 100.67 198.682 102.398C194.614 104.102 189.955 104.955 184.705 104.955ZM184.705 94.1136C187.045 94.1136 189.091 93.6932 190.841 92.8523C192.591 91.9886 193.955 90.8068 194.932 89.3068C195.932 87.7841 196.432 86.0341 196.432 84.0568C196.432 82.0341 195.92 80.25 194.898 78.7045C193.875 77.1364 192.489 75.9091 190.739 75.0227C188.989 74.1136 186.977 73.6591 184.705 73.6591C182.455 73.6591 180.443 74.1136 178.67 75.0227C176.898 75.9091 175.5 77.1364 174.477 78.7045C173.477 80.25 172.977 82.0341 172.977 84.0568C172.977 86.0341 173.466 87.7841 174.443 89.3068C175.42 90.8068 176.795 91.9886 178.568 92.8523C180.341 93.6932 182.386 94.1136 184.705 94.1136ZM184.705 62.9205C186.659 62.9205 188.398 62.5227 189.92 61.7273C191.443 60.9318 192.636 59.8295 193.5 58.4205C194.364 57.0114 194.795 55.3864 194.795 53.5455C194.795 51.7273 194.364 50.1364 193.5 48.7727C192.636 47.3864 191.455 46.3068 189.955 45.5341C188.455 44.7386 186.705 44.3409 184.705 44.3409C182.727 44.3409 180.977 44.7386 179.455 45.5341C177.932 46.3068 176.739 47.3864 175.875 48.7727C175.034 50.1364 174.614 51.7273 174.614 53.5455C174.614 55.3864 175.045 57.0114 175.909 58.4205C176.773 59.8295 177.966 60.9318 179.489 61.7273C181.011 62.5227 182.75 62.9205 184.705 62.9205Z" fill="white"/>
</g>
<path d="M75.6886 257.08H79.4326V258.456C79.4326 264.152 74.9526 268.984 67.1766 270.136L65.5126 266.712C72.3286 265.816 75.6886 261.944 75.6886 258.456V257.08ZM76.4886 257.08H80.2006V258.456C80.2006 261.912 83.5926 265.816 90.3766 266.712L88.7446 270.136C80.9686 268.984 76.4886 264.152 76.4886 258.456V257.08ZM75.7206 275H79.9446V285.848H75.7206V275ZM64.5526 272.312H91.3366V275.768H64.5526V272.312ZM121.396 256.216H125.652V270.936H121.396V256.216ZM123.956 262.392H129.588V265.88H123.956V262.392ZM103.188 258.04H117.3V270.424H103.188V258.04ZM113.108 261.368H107.38V267.096H113.108V261.368ZM104.948 281.688H106.58C109.172 281.688 111.444 281.496 113.62 280.76L114.26 284.088C111.796 284.952 109.492 285.08 106.58 285.08H104.948V281.688ZM104.948 273.464H109.076V282.52H104.948V273.464ZM113.204 273.752H128.02V276.76H113.204V273.752ZM120.628 277.528C123.988 277.528 126.324 279.16 126.324 281.688C126.324 284.248 123.988 285.848 120.628 285.848C117.236 285.848 114.9 284.248 114.9 281.688C114.9 279.16 117.236 277.528 120.628 277.528ZM120.628 280.408C119.476 280.408 118.676 280.824 118.676 281.688C118.676 282.584 119.476 283 120.628 283C121.716 283 122.548 282.584 122.548 281.688C122.548 280.824 121.716 280.408 120.628 280.408ZM118.58 271.64H122.708V275.96H118.58V271.64ZM132.242 271.32H159.026V274.712H132.242V271.32ZM135.474 281.944H156.018V285.336H135.474V281.944ZM135.474 276.696H139.73V283.032H135.474V276.696ZM145.65 257.08C152.082 257.08 156.37 259.416 156.37 263.192C156.37 266.968 152.082 269.304 145.65 269.304C139.186 269.304 134.93 266.968 134.93 263.192C134.93 259.416 139.186 257.08 145.65 257.08ZM145.65 260.472C141.65 260.472 139.314 261.4 139.314 263.192C139.314 265.016 141.65 265.912 145.65 265.912C149.65 265.912 151.986 265.016 151.986 263.192C151.986 261.4 149.65 260.472 145.65 260.472ZM191.358 256.216H195.422V285.848H191.358V256.216ZM187.614 267.384H192.51V270.776H187.614V267.384ZM178.782 259.832H182.846C182.846 268.184 180.414 274.936 172.126 279.768L169.662 276.824C176.414 272.824 178.782 267.832 178.782 260.728V259.832ZM171.166 259.832H180.03V263.256H171.166V259.832ZM184.798 256.984H188.766V284.568H184.798V256.984ZM200.827 257.528H205.051V261.016H210.843V257.528H215.067V270.488H200.827V257.528ZM205.051 264.216V267.16H210.843V264.216H205.051ZM219.035 256.216H223.291V271.256H219.035V256.216ZM221.563 261.912H227.195V265.368H221.563V261.912ZM203.707 272.408H223.291V280.472H207.995V283.992H203.771V277.432H219.099V275.672H203.707V272.408ZM203.771 282.36H224.155V285.656H203.771V282.36ZM236.537 260.888H239.897V264.216C239.897 270.904 237.081 277.72 231.641 280.28L229.241 276.92C234.137 274.616 236.537 269.08 236.537 264.216V260.888ZM237.433 260.888H240.793V264.216C240.793 268.696 243.097 273.944 247.961 276.184L245.625 279.544C240.185 277.016 237.433 270.52 237.433 264.216V260.888ZM230.393 259.064H246.649V262.552H230.393V259.064ZM248.825 256.216H253.113V285.848H248.825V256.216ZM252.153 267.512H257.401V271.032H252.153V267.512ZM259.83 267.704H286.646V271.064H259.83V267.704ZM263.126 262.776H283.478V266.104H263.126V262.776ZM263.126 256.76H283.222V260.152H267.35V265.656H263.126V256.76ZM262.87 272.728H283.35V280.568H267.094V283.128H262.902V277.56H279.158V275.928H262.87V272.728ZM262.902 282.36H284.118V285.624H262.902V282.36ZM310.036 256.184H314.324V285.912H310.036V256.184ZM298.356 258.264C302.836 258.264 306.132 262.36 306.132 268.824C306.132 275.352 302.836 279.448 298.356 279.448C293.876 279.448 290.58 275.352 290.58 268.824C290.58 262.36 293.876 258.264 298.356 258.264ZM298.356 262.136C296.148 262.136 294.644 264.472 294.644 268.824C294.644 273.24 296.148 275.608 298.356 275.608C300.564 275.608 302.036 273.24 302.036 268.824C302.036 264.472 300.564 262.136 298.356 262.136ZM30.0368 302.216H34.1008V331.848H30.0368V302.216ZM18.7728 313.032H25.6528V316.456H18.7728V313.032ZM23.9248 302.728H27.8928V330.536H23.9248V302.728ZM9.49275 321.768H11.5408C15.7328 321.768 18.5168 321.672 21.7808 321.032L22.1008 324.488C18.8048 325.16 15.8608 325.288 11.5408 325.288H9.49275V321.768ZM9.49275 305.544H20.7888V308.936H13.6848V323.24H9.49275V305.544ZM38.5783 324.84H65.3943V328.328H38.5783V324.84ZM41.3943 304.136H45.6183V308.936H58.2583V304.136H62.4823V319.944H41.3943V304.136ZM45.6183 312.232V316.584H58.2583V312.232H45.6183ZM75.8238 303.88C79.5998 303.88 82.3838 306.184 82.3838 309.48C82.3838 312.776 79.5998 315.08 75.8238 315.08C72.0158 315.08 69.2638 312.776 69.2638 309.48C69.2638 306.184 72.0158 303.88 75.8238 303.88ZM75.8238 307.016C74.1598 307.016 73.0078 307.912 73.0078 309.48C73.0078 311.048 74.1598 311.944 75.8238 311.944C77.4558 311.944 78.6078 311.048 78.6078 309.48C78.6078 307.912 77.4558 307.016 75.8238 307.016ZM90.3518 302.216H94.3838V331.848H90.3518V302.216ZM84.4318 302.696H88.3998V330.504H84.4318V302.696ZM79.7598 321.288H85.7118V324.488H79.7598V321.288ZM73.7438 318.312H77.7758V329.544H73.7438V318.312ZM68.4958 320.104L68.0158 316.68C71.9838 316.68 78.3198 316.616 82.9598 315.944L83.2798 319.048C78.4478 320.008 72.3678 320.104 68.4958 320.104ZM118.701 302.184H122.989V331.912H118.701V302.184ZM107.021 304.264C111.501 304.264 114.797 308.36 114.797 314.824C114.797 321.352 111.501 325.448 107.021 325.448C102.541 325.448 99.2453 321.352 99.2453 314.824C99.2453 308.36 102.541 304.264 107.021 304.264ZM107.021 308.136C104.813 308.136 103.309 310.472 103.309 314.824C103.309 319.24 104.813 321.608 107.021 321.608C109.229 321.608 110.701 319.24 110.701 314.824C110.701 310.472 109.229 308.136 107.021 308.136ZM134.955 317.224H139.211V324.232H134.955V317.224ZM137.035 303.944C141.611 303.944 145.099 306.984 145.099 311.24C145.099 315.496 141.611 318.536 137.035 318.536C132.427 318.536 128.971 315.496 128.971 311.24C128.971 306.984 132.427 303.944 137.035 303.944ZM137.035 307.56C134.795 307.56 133.131 308.904 133.131 311.24C133.131 313.544 134.795 314.92 137.035 314.92C139.275 314.92 140.939 313.544 140.939 311.24C140.939 308.904 139.275 307.56 137.035 307.56ZM147.435 302.216H151.691V331.848H147.435V302.216ZM150.379 313.8H155.595V317.352H150.379V313.8ZM128.491 325.96L127.979 322.536C133.099 322.504 140.011 322.536 145.899 321.736L146.219 324.84C140.075 325.992 133.483 325.992 128.491 325.96ZM172.983 303.752H176.535V306.408C176.535 312.36 173.879 317.576 168.055 319.528L165.847 316.104C170.903 314.472 172.983 310.472 172.983 306.408V303.752ZM173.879 303.752H177.303V306.216C177.303 310.152 179.223 313.8 183.927 315.304L181.719 318.632C176.247 316.744 173.879 311.976 173.879 306.216V303.752ZM186.647 302.216H190.903V319.56H186.647V302.216ZM180.855 320.328C187.127 320.328 190.999 322.472 190.999 326.088C190.999 329.736 187.127 331.848 180.855 331.848C174.583 331.848 170.711 329.736 170.711 326.088C170.711 322.472 174.583 320.328 180.855 320.328ZM180.855 323.624C177.015 323.624 174.967 324.424 174.967 326.088C174.967 327.752 177.015 328.584 180.855 328.584C184.727 328.584 186.775 327.752 186.775 326.088C186.775 324.424 184.727 323.624 180.855 323.624ZM181.239 307.592H187.255V311.048H181.239V307.592ZM202.612 305.512H206.1V307.368C206.1 313.032 203.444 318.12 197.716 320.008L195.604 316.648C200.532 315.016 202.612 311.144 202.612 307.368V305.512ZM203.476 305.512H206.932V307.368C206.932 310.824 208.916 314.216 213.684 315.656L211.668 318.984C206.036 317.288 203.476 312.648 203.476 307.368V305.512ZM196.724 304.2H212.724V307.592H196.724V304.2ZM215.092 302.216H219.348V319.784H215.092V302.216ZM218.164 309.032H223.284V312.52H218.164V309.032ZM209.684 320.328C215.828 320.328 219.7 322.472 219.7 326.088C219.7 329.704 215.828 331.848 209.684 331.848C203.508 331.848 199.636 329.704 199.636 326.088C199.636 322.472 203.508 320.328 209.684 320.328ZM209.684 323.656C205.908 323.656 203.86 324.424 203.86 326.088C203.86 327.752 205.908 328.584 209.684 328.584C213.46 328.584 215.476 327.752 215.476 326.088C215.476 324.424 213.46 323.656 209.684 323.656ZM244.946 302.216H249.17V331.848H244.946V302.216ZM248.21 313.768H253.458V317.32H248.21V313.768ZM225.81 306.6H243.058V309.992H225.81V306.6ZM234.482 311.656C238.802 311.656 242.002 314.6 242.002 318.728C242.002 322.856 238.802 325.8 234.482 325.8C230.162 325.8 226.962 322.856 226.962 318.728C226.962 314.6 230.162 311.656 234.482 311.656ZM234.482 315.112C232.466 315.112 231.026 316.456 231.026 318.728C231.026 321 232.466 322.344 234.482 322.344C236.498 322.344 237.938 321 237.938 318.728C237.938 316.456 236.498 315.112 234.482 315.112ZM232.338 302.696H236.594V307.88H232.338V302.696ZM258.607 304.712H277.391V308.136H258.607V304.712ZM255.887 324.84H282.671V328.296H255.887V324.84ZM265.359 314.664H269.615V326.536H265.359V314.664ZM275.855 304.712H280.111V307.56C280.111 311.272 280.111 315.432 278.927 321.768L274.671 321.288C275.855 315.4 275.855 311.112 275.855 307.56V304.712ZM300.315 320.2H303.515V321.192C303.515 325.672 301.531 329.768 296.891 331.432L294.811 328.328C298.683 327.016 300.315 324.072 300.315 321.192V320.2ZM301.403 320.2H304.443V321.192C304.443 324.072 305.883 327.08 309.499 328.584L307.803 331.72C303.099 329.96 301.403 325.544 301.403 321.192V320.2ZM311.131 320.2H314.171V321.192C314.171 325.288 312.411 329.896 307.803 331.72L306.043 328.584C309.659 326.952 311.131 323.816 311.131 321.192V320.2ZM312.123 320.2H315.323V321.192C315.323 324.264 316.923 327.112 320.827 328.328L318.747 331.432C314.043 329.832 312.123 325.864 312.123 321.192V320.2ZM314.011 302.248H318.299V318.984H314.011V302.248ZM302.171 303.752C306.779 303.752 310.203 306.696 310.203 310.856C310.203 314.984 306.779 317.928 302.171 317.928C297.563 317.928 294.107 314.984 294.107 310.856C294.107 306.696 297.563 303.752 302.171 303.752ZM302.171 307.272C299.931 307.272 298.267 308.584 298.267 310.856C298.267 313.096 299.931 314.408 302.171 314.408C304.411 314.408 306.043 313.096 306.043 310.856C306.043 308.584 304.411 307.272 302.171 307.272ZM331.704 304.264C336.12 304.264 339.352 308.36 339.352 314.824C339.352 321.352 336.12 325.448 331.704 325.448C327.256 325.448 324.056 321.352 324.056 314.824C324.056 308.36 327.256 304.264 331.704 304.264ZM331.704 308.136C329.56 308.136 328.12 310.472 328.12 314.824C328.12 319.24 329.56 321.608 331.704 321.608C333.88 321.608 335.288 319.24 335.288 314.824C335.288 310.472 333.88 308.136 331.704 308.136ZM344.216 302.184H348.44V331.912H344.216V302.184ZM338.104 312.872H346.008V316.296H338.104V312.872ZM359.414 317.256H363.638V325.576H359.414V317.256ZM370.166 317.256H374.422V325.576H370.166V317.256ZM353.526 324.968H380.342V328.424H353.526V324.968ZM366.902 303.656C373.27 303.656 377.974 306.792 377.974 311.624C377.974 316.456 373.27 319.56 366.902 319.56C360.502 319.56 355.83 316.456 355.83 311.624C355.83 306.792 360.502 303.656 366.902 303.656ZM366.902 306.984C362.774 306.984 360.022 308.68 360.022 311.624C360.022 314.536 362.774 316.264 366.902 316.264C371.03 316.264 373.782 314.536 373.782 311.624C373.782 308.68 371.03 306.984 366.902 306.984Z" fill="white"/>
<g filter="url(#filter2_d_1651_342)">
<path d="M482.864 168.552H513.056V184.296H482.864V168.552ZM506.768 173.544H489.104V179.304H506.768V173.544ZM477.92 188.472H518.096V193.512H477.92V188.472ZM494.768 183.144H501.152V189.912H494.768V183.144ZM482.384 196.728H513.248V211.272H506.864V201.768H482.384V196.728ZM532.684 191.016H539.068V202.968H532.684V191.016ZM546.652 191.064H552.988V203.016H546.652V191.064ZM522.844 201.24H563.068V206.424H522.844V201.24ZM525.916 170.328H559.756V175.416H525.916V170.328ZM526.108 187.896H559.612V192.936H526.108V187.896ZM531.964 174.552H538.348V188.616H531.964V174.552ZM547.372 174.552H553.708V188.616H547.372V174.552ZM610.126 166.824H616.558V211.272H610.126V166.824ZM597.022 171.432H603.358C603.358 185.016 598.75 196.152 582.958 203.784L579.646 198.696C592.414 192.552 597.022 184.488 597.022 172.584V171.432ZM581.998 171.432H600.046V176.472H581.998V171.432ZM644.25 175.896H656.346V181.032H644.25V175.896ZM644.25 189.672H656.346V194.808H644.25V189.672ZM636.57 169.896C643.194 169.896 648.042 176.04 648.042 185.736C648.042 195.528 643.194 201.672 636.57 201.672C629.898 201.672 625.098 195.528 625.098 185.736C625.098 176.04 629.898 169.896 636.57 169.896ZM636.57 175.704C633.354 175.704 631.146 179.208 631.146 185.736C631.146 192.36 633.354 195.912 636.57 195.912C639.834 195.912 641.994 192.36 641.994 185.736C641.994 179.208 639.834 175.704 636.57 175.704ZM655.338 166.776H661.674V211.368H655.338V166.776ZM679.238 173.832H684.278V178.824C684.278 188.856 680.054 199.08 671.894 202.92L668.294 197.88C675.638 194.424 679.238 186.12 679.238 178.824V173.832ZM680.582 173.832H685.622V178.824C685.622 185.544 689.078 193.416 696.374 196.776L692.87 201.816C684.71 198.024 680.582 188.28 680.582 178.824V173.832ZM670.022 171.096H694.406V176.328H670.022V171.096ZM697.67 166.824H704.102V211.272H697.67V166.824ZM702.662 183.768H710.534V189.048H702.662V183.768ZM742.712 168.12H748.328V170.184C748.328 178.728 741.608 185.976 729.944 187.704L727.448 182.568C737.672 181.224 742.712 175.416 742.712 170.184V168.12ZM743.912 168.12H749.48V170.184C749.48 175.368 754.568 181.224 764.744 182.568L762.296 187.704C750.632 185.976 743.912 178.728 743.912 170.184V168.12ZM742.76 195H749.096V211.272H742.76V195ZM726.008 190.968H766.184V196.152H726.008V190.968Z" fill="#FF4040"/>
</g>
<g filter="url(#filter3_d_1651_342)">
<path d="M539.034 34.1818V104H524.273V48.1932H523.864L507.875 58.2159V45.125L525.159 34.1818H539.034ZM587.443 34.1818V104H572.681V48.1932H572.272L556.284 58.2159V45.125L573.568 34.1818H587.443ZM630.977 104.955C626.158 104.955 621.863 104.068 618.09 102.295C614.34 100.523 611.363 98.0795 609.158 94.9659C606.954 91.8523 605.806 88.2841 605.715 84.2614H620.033C620.192 86.9659 621.329 89.1591 623.442 90.8409C625.556 92.5227 628.067 93.3636 630.977 93.3636C633.295 93.3636 635.34 92.8523 637.113 91.8295C638.908 90.7841 640.306 89.3409 641.306 87.5C642.329 85.6364 642.84 83.5 642.84 81.0909C642.84 78.6364 642.317 76.4773 641.272 74.6136C640.249 72.75 638.829 71.2955 637.011 70.25C635.192 69.2045 633.113 68.6705 630.772 68.6477C628.727 68.6477 626.738 69.0682 624.806 69.9091C622.897 70.75 621.408 71.8977 620.34 73.3523L607.215 71L610.522 34.1818H653.204V46.25H622.692L620.886 63.7386H621.295C622.522 62.0114 624.374 60.5795 626.852 59.4432C629.329 58.3068 632.102 57.7386 635.17 57.7386C639.374 57.7386 643.124 58.7273 646.42 60.7045C649.715 62.6818 652.317 65.3977 654.227 68.8523C656.136 72.2841 657.079 76.2386 657.056 80.7159C657.079 85.4205 655.988 89.6023 653.783 93.2614C651.602 96.8977 648.545 99.7614 644.613 101.852C640.704 103.92 636.158 104.955 630.977 104.955ZM696.167 105.534C690.303 105.511 685.258 104.068 681.03 101.205C676.826 98.3409 673.587 94.1932 671.314 88.7614C669.064 83.3295 667.951 76.7955 667.973 69.1591C667.973 61.5455 669.098 55.0568 671.348 49.6932C673.621 44.3295 676.86 40.25 681.064 37.4545C685.292 34.6364 690.326 33.2273 696.167 33.2273C702.008 33.2273 707.03 34.6364 711.235 37.4545C715.462 40.2727 718.712 44.3636 720.985 49.7273C723.258 55.0682 724.383 61.5455 724.36 69.1591C724.36 76.8182 723.223 83.3636 720.951 88.7955C718.701 94.2273 715.473 98.375 711.269 101.239C707.064 104.102 702.03 105.534 696.167 105.534ZM696.167 93.2955C700.167 93.2955 703.36 91.2841 705.746 87.2614C708.133 83.2386 709.314 77.2045 709.292 69.1591C709.292 63.8636 708.746 59.4545 707.655 55.9318C706.587 52.4091 705.064 49.7614 703.087 47.9886C701.133 46.2159 698.826 45.3295 696.167 45.3295C692.189 45.3295 689.008 47.3182 686.621 51.2955C684.235 55.2727 683.03 61.2273 683.008 69.1591C683.008 74.5227 683.542 79 684.61 82.5909C685.701 86.1591 687.235 88.8409 689.212 90.6364C691.189 92.4091 693.508 93.2955 696.167 93.2955Z" fill="white"/>
</g>
<path d="M509.856 256.216H513.92V285.848H509.856V256.216ZM498.592 267.032H505.472V270.456H498.592V267.032ZM503.744 256.728H507.712V284.536H503.744V256.728ZM489.312 275.768H491.36C495.552 275.768 498.336 275.672 501.6 275.032L501.92 278.488C498.624 279.16 495.68 279.288 491.36 279.288H489.312V275.768ZM489.312 259.544H500.608V262.936H493.504V277.24H489.312V259.544ZM518.398 278.84H545.214V282.328H518.398V278.84ZM521.214 258.136H525.438V262.936H538.078V258.136H542.302V273.944H521.214V258.136ZM525.438 266.232V270.584H538.078V266.232H525.438ZM555.643 257.88C559.419 257.88 562.203 260.184 562.203 263.48C562.203 266.776 559.419 269.08 555.643 269.08C551.835 269.08 549.083 266.776 549.083 263.48C549.083 260.184 551.835 257.88 555.643 257.88ZM555.643 261.016C553.979 261.016 552.827 261.912 552.827 263.48C552.827 265.048 553.979 265.944 555.643 265.944C557.275 265.944 558.427 265.048 558.427 263.48C558.427 261.912 557.275 261.016 555.643 261.016ZM570.171 256.216H574.203V285.848H570.171V256.216ZM564.251 256.696H568.219V284.504H564.251V256.696ZM559.579 275.288H565.531V278.488H559.579V275.288ZM553.563 272.312H557.595V283.544H553.563V272.312ZM548.315 274.104L547.835 270.68C551.803 270.68 558.139 270.616 562.779 269.944L563.099 273.048C558.267 274.008 552.187 274.104 548.315 274.104ZM598.521 256.184H602.809V285.912H598.521V256.184ZM586.841 258.264C591.321 258.264 594.617 262.36 594.617 268.824C594.617 275.352 591.321 279.448 586.841 279.448C582.361 279.448 579.065 275.352 579.065 268.824C579.065 262.36 582.361 258.264 586.841 258.264ZM586.841 262.136C584.633 262.136 583.129 264.472 583.129 268.824C583.129 273.24 584.633 275.608 586.841 275.608C589.049 275.608 590.521 273.24 590.521 268.824C590.521 264.472 589.049 262.136 586.841 262.136ZM611.446 264.216H631.99V267.576H611.446V264.216ZM608.118 270.648H634.966V274.04H608.118V270.648ZM611.446 257.272H615.67V265.88H611.446V257.272ZM611.158 281.816H632.15V285.208H611.158V281.816ZM611.158 276.408H615.414V282.712H611.158V276.408ZM645.922 267.384H672.738V270.744H645.922V267.384ZM648.418 257.208H655.33V260.632H648.418V257.208ZM654.082 257.208H658.242V259.352C658.242 261.88 658.242 265.08 656.834 269.144L652.738 268.216C654.082 264.312 654.082 261.752 654.082 259.352V257.208ZM659.938 257.208H667.554V260.632H659.938V257.208ZM665.602 257.208H669.73V259.128C669.73 261.56 669.73 264.856 668.45 269.272L664.354 268.568C665.602 264.312 665.602 261.432 665.602 259.128V257.208ZM657.826 273.912H671.426V276.984H657.826V273.912ZM664.674 277.784C667.778 277.784 670.05 279.384 670.05 281.816C670.05 284.312 667.778 285.88 664.674 285.88C661.57 285.88 659.298 284.312 659.298 281.816C659.298 279.384 661.57 277.784 664.674 277.784ZM664.674 280.632C663.65 280.632 662.882 280.984 662.882 281.816C662.882 282.68 663.65 283.032 664.674 283.032C665.698 283.032 666.466 282.68 666.466 281.816C666.466 280.984 665.698 280.632 664.674 280.632ZM662.626 271.928H666.754V276.28H662.626V271.928ZM648.802 281.688H650.498C652.962 281.688 655.426 281.496 657.986 280.728L658.498 284.12C655.746 284.92 653.25 285.08 650.498 285.08H648.802V281.688ZM648.802 273.784H652.93V282.904H648.802V273.784ZM696.191 256.248H700.479V272.984H696.191V256.248ZM680.767 274.328H700.479V285.528H680.767V274.328ZM696.287 277.656H684.927V282.168H696.287V277.656ZM684.351 257.592C688.959 257.592 692.383 260.536 692.383 264.696C692.383 268.824 688.959 271.8 684.351 271.8C679.743 271.8 676.287 268.824 676.287 264.696C676.287 260.536 679.743 257.592 684.351 257.592ZM684.351 261.112C682.111 261.112 680.447 262.424 680.447 264.696C680.447 266.936 682.111 268.248 684.351 268.248C686.591 268.248 688.223 266.936 688.223 264.696C688.223 262.424 686.591 261.112 684.351 261.112ZM709.021 273.56H712.957V276.472H715.901V273.56H719.837V285.528H709.021V273.56ZM712.957 279.544V282.328H715.901V279.544H712.957ZM724.413 273.336H727.645V275.544C727.645 279.896 725.885 284.12 721.501 285.816L719.421 282.648C722.973 281.176 724.413 278.328 724.413 275.544V273.336ZM725.405 273.336H728.637V275.544C728.637 278.616 730.045 281.432 733.661 282.648L731.549 285.816C727.069 284.216 725.405 280.216 725.405 275.544V273.336ZM720.733 262.552H728.157V266.008H720.733V262.552ZM713.949 257.336C718.397 257.336 721.757 260.216 721.757 264.312C721.757 268.408 718.397 271.32 713.949 271.32C709.469 271.32 706.109 268.408 706.109 264.312C706.109 260.216 709.469 257.336 713.949 257.336ZM713.949 260.824C711.773 260.824 710.173 262.136 710.173 264.312C710.173 266.488 711.773 267.832 713.949 267.832C716.125 267.832 717.693 266.488 717.693 264.312C717.693 262.136 716.125 260.824 713.949 260.824ZM726.301 256.216H730.557V271.896H726.301V256.216ZM755.994 256.184H760.282V285.912H755.994V256.184ZM744.314 258.264C748.794 258.264 752.09 262.36 752.09 268.824C752.09 275.352 748.794 279.448 744.314 279.448C739.834 279.448 736.538 275.352 736.538 268.824C736.538 262.36 739.834 258.264 744.314 258.264ZM744.314 262.136C742.106 262.136 740.602 264.472 740.602 268.824C740.602 273.24 742.106 275.608 744.314 275.608C746.522 275.608 747.994 273.24 747.994 268.824C747.994 264.472 746.522 262.136 744.314 262.136ZM544.421 313.416H549.637V316.904H544.421V313.416ZM541.253 302.184H545.541V331.816H541.253V302.184ZM523.205 305.032H527.461V323.432H523.205V305.032ZM523.205 321.064H525.765C529.989 321.064 534.565 320.776 539.333 319.816L539.781 323.304C534.885 324.328 530.117 324.584 525.765 324.584H523.205V321.064ZM560.162 304.264C564.674 304.264 567.938 308.36 567.938 314.824C567.938 321.352 564.674 325.448 560.162 325.448C555.65 325.448 552.386 321.352 552.386 314.824C552.386 308.36 555.65 304.264 560.162 304.264ZM560.162 308.136C557.954 308.136 556.482 310.472 556.482 314.824C556.482 319.24 557.954 321.608 560.162 321.608C562.37 321.608 563.874 319.24 563.874 314.824C563.874 310.472 562.37 308.136 560.162 308.136ZM571.17 302.216H575.458V331.848H571.17V302.216ZM574.498 313.384H579.746V316.904H574.498V313.384ZM601.088 302.184H605.376V331.816H601.088V302.184ZM604.256 313.512H609.472V317H604.256V313.512ZM593.312 305.256H597.472C597.472 314.152 594.08 321.768 584.224 326.728L581.856 323.496C589.632 319.464 593.312 314.024 593.312 305.992V305.256ZM583.488 305.256H595.488V308.68H583.488V305.256ZM620.765 304.232H625.053C625.053 311.72 621.725 316.776 614.141 319.912L612.061 316.808C618.237 314.376 620.765 310.792 620.765 305.768V304.232ZM613.597 304.232H622.429V307.656H613.597V304.232ZM633.277 302.216H637.309V319.048H633.277V302.216ZM621.597 309.928H627.869V313.288H621.597V309.928ZM627.261 302.792H631.229V318.664H627.261V302.792ZM618.909 319.976H622.077V321.288C622.077 325.8 620.093 329.928 615.453 331.624L613.373 328.52C617.245 327.176 618.909 324.2 618.909 321.288V319.976ZM619.965 319.976H623.005V321.288C623.005 324.2 624.445 327.24 628.093 328.776L626.365 331.88C621.661 330.12 619.965 325.672 619.965 321.288V319.976ZM629.661 319.976H632.701V321.288C632.701 325.416 630.973 330.056 626.365 331.88L624.573 328.776C628.221 327.112 629.661 323.912 629.661 321.288V319.976ZM630.653 319.976H633.853V321.288C633.853 324.392 635.485 327.304 639.357 328.52L637.309 331.624C632.605 329.992 630.653 325.992 630.653 321.288V319.976ZM645.115 319.976H649.307V322.472H661.179V319.976H665.403V331.528H645.115V319.976ZM649.307 325.64V328.2H661.179V325.64H649.307ZM641.979 315.144H668.763V318.504H641.979V315.144ZM653.211 302.536H656.859V303.432C656.859 308.584 652.443 312.84 644.795 313.832L643.291 310.536C649.979 309.736 653.211 306.44 653.211 303.432V302.536ZM653.915 302.536H657.563V303.432C657.563 306.408 660.795 309.736 667.451 310.536L665.947 313.832C658.299 312.84 653.915 308.552 653.915 303.432V302.536ZM692.408 302.216H696.664V331.848H692.408V302.216ZM673.464 305.032H677.688V323.432H673.464V305.032ZM673.464 320.936H676.088C680.408 320.936 685.208 320.616 690.104 319.656L690.584 323.176C685.496 324.232 680.6 324.552 676.088 324.552H673.464V320.936ZM720.758 302.184H725.046V331.912H720.758V302.184ZM724.086 313.16H729.334V316.648H724.086V313.16ZM702.966 321.256H705.462C710.454 321.256 714.39 321.096 718.742 320.328L719.158 323.848C714.678 324.648 710.614 324.776 705.462 324.776H702.966V321.256ZM702.966 304.936H716.79V308.36H707.19V322.952H702.966V304.936Z" fill="white"/>
<g filter="url(#filter4_d_1651_342)">
<path d="M935.816 166.824H942.2V192.936H935.816V166.824ZM939.944 177.288H947.768V182.52H939.944V177.288ZM912.296 194.568H942.2V204.648H918.68V208.2H912.344V200.712H935.912V198.792H912.296V194.568ZM912.344 206.76H943.736V210.984H912.344V206.76ZM917 184.584H923.384V190.92H917V184.584ZM907.064 192.552L906.392 188.232C914.264 188.232 924.872 188.184 933.848 186.984L934.328 190.872C924.968 192.504 914.744 192.552 907.064 192.552ZM907.544 169.608H932.744V173.832H907.544V169.608ZM920.168 174.648C926.744 174.648 930.968 176.808 930.968 180.456C930.968 184.152 926.744 186.312 920.168 186.312C913.544 186.312 909.32 184.152 909.32 180.456C909.32 176.808 913.544 174.648 920.168 174.648ZM920.168 178.584C917.144 178.584 915.368 179.16 915.368 180.456C915.368 181.752 917.144 182.376 920.168 182.376C923.192 182.376 924.92 181.752 924.92 180.456C924.92 179.16 923.192 178.584 920.168 178.584ZM917 166.44H923.384V171.96H917V166.44ZM960.82 181.704H967.204V189.864H960.82V181.704ZM976.468 181.704H982.804V189.864H976.468V181.704ZM951.796 187.896H991.972V192.936H951.796V187.896ZM971.812 195.192C981.412 195.192 987.22 198.072 987.22 203.208C987.22 208.392 981.412 211.272 971.812 211.272C962.164 211.272 956.356 208.392 956.356 203.208C956.356 198.072 962.164 195.192 971.812 195.192ZM971.812 199.992C965.86 199.992 962.836 201 962.836 203.208C962.836 205.464 965.86 206.472 971.812 206.472C977.764 206.472 980.788 205.464 980.788 203.208C980.788 201 977.764 199.992 971.812 199.992ZM971.908 167.448C981.7 167.448 987.988 170.712 987.988 176.04C987.988 181.32 981.7 184.488 971.908 184.488C962.068 184.488 955.828 181.32 955.828 176.04C955.828 170.712 962.068 167.448 971.908 167.448ZM971.908 172.344C965.812 172.344 962.404 173.544 962.404 176.04C962.404 178.488 965.812 179.688 971.908 179.688C978.004 179.688 981.412 178.488 981.412 176.04C981.412 173.544 978.004 172.344 971.908 172.344ZM1030.92 180.696H1042.63V185.832H1030.92V180.696ZM1018.82 170.232H1024.01V176.664C1024.01 187.848 1020.21 198.168 1011.86 202.344L1007.88 197.208C1015.46 193.704 1018.82 185.112 1018.82 176.664V170.232ZM1020.17 170.232H1025.25V176.664C1025.25 185.112 1028.47 193.224 1035.81 196.488L1032.02 201.576C1023.67 197.544 1020.17 187.752 1020.17 176.664V170.232ZM1039.46 166.776H1045.8V211.368H1039.46V166.776ZM1083.86 166.776H1090.29V211.368H1083.86V166.776ZM1055.59 170.328H1061.92V181.128H1071.09V170.328H1077.43V201H1055.59V170.328ZM1061.92 186.072V195.864H1071.09V186.072H1061.92ZM1114.77 169.368H1120.33V172.584C1120.33 182.232 1113.47 190.776 1101.95 193.032L1099.21 187.752C1109.25 186.024 1114.77 178.968 1114.77 172.584V169.368ZM1116.06 169.368H1121.58V172.584C1121.58 179.112 1127.05 186.024 1137.13 187.752L1134.4 193.032C1122.88 190.776 1116.06 182.376 1116.06 172.584V169.368ZM1098.3 200.664H1138.53V205.848H1098.3V200.664ZM1171.71 168.12H1177.33V170.184C1177.33 178.728 1170.61 185.976 1158.94 187.704L1156.45 182.568C1166.67 181.224 1171.71 175.416 1171.71 170.184V168.12ZM1172.91 168.12H1178.48V170.184C1178.48 175.368 1183.57 181.224 1193.74 182.568L1191.3 187.704C1179.63 185.976 1172.91 178.728 1172.91 170.184V168.12ZM1171.76 195H1178.1V211.272H1171.76V195ZM1155.01 190.968H1195.18V196.152H1155.01V190.968Z" fill="#FF4040"/>
</g>
<g filter="url(#filter5_d_1651_342)">
<path d="M1015.6 91.7273V80.1023L1044.75 34.1818H1054.77V50.2727H1048.84L1030.47 79.3523V79.8977H1071.89V91.7273H1015.6ZM1049.11 104V88.1818L1049.39 83.0341V34.1818H1063.23V104H1049.11Z" fill="white"/>
</g>
<path d="M903.256 256.216H907.32V285.848H903.256V256.216ZM891.992 267.032H898.872V270.456H891.992V267.032ZM897.144 256.728H901.112V284.536H897.144V256.728ZM882.712 275.768H884.76C888.952 275.768 891.736 275.672 895 275.032L895.32 278.488C892.024 279.16 889.08 279.288 884.76 279.288H882.712V275.768ZM882.712 259.544H894.008V262.936H886.904V277.24H882.712V259.544ZM911.797 278.84H938.613V282.328H911.797V278.84ZM914.613 258.136H918.837V262.936H931.477V258.136H935.701V273.944H914.613V258.136ZM918.837 266.232V270.584H931.477V266.232H918.837ZM949.043 257.88C952.819 257.88 955.603 260.184 955.603 263.48C955.603 266.776 952.819 269.08 949.043 269.08C945.235 269.08 942.483 266.776 942.483 263.48C942.483 260.184 945.235 257.88 949.043 257.88ZM949.043 261.016C947.379 261.016 946.227 261.912 946.227 263.48C946.227 265.048 947.379 265.944 949.043 265.944C950.675 265.944 951.827 265.048 951.827 263.48C951.827 261.912 950.675 261.016 949.043 261.016ZM963.571 256.216H967.603V285.848H963.571V256.216ZM957.651 256.696H961.619V284.504H957.651V256.696ZM952.979 275.288H958.931V278.488H952.979V275.288ZM946.963 272.312H950.995V283.544H946.963V272.312ZM941.715 274.104L941.235 270.68C945.203 270.68 951.539 270.616 956.179 269.944L956.499 273.048C951.667 274.008 945.587 274.104 941.715 274.104ZM991.92 256.184H996.208V285.912H991.92V256.184ZM980.24 258.264C984.72 258.264 988.016 262.36 988.016 268.824C988.016 275.352 984.72 279.448 980.24 279.448C975.76 279.448 972.464 275.352 972.464 268.824C972.464 262.36 975.76 258.264 980.24 258.264ZM980.24 262.136C978.032 262.136 976.528 264.472 976.528 268.824C976.528 273.24 978.032 275.608 980.24 275.608C982.448 275.608 983.92 273.24 983.92 268.824C983.92 264.472 982.448 262.136 980.24 262.136ZM1001.52 269.496H1028.37V272.6H1001.52V269.496ZM1004.53 274.072H1025.17V281.112H1008.81V283.64H1004.59V278.424H1020.97V276.952H1004.53V274.072ZM1004.59 282.744H1026V285.624H1004.59V282.744ZM1004.81 256.728H1025.1V263.704H1009.07V266.136H1004.85V261.048H1020.91V259.576H1004.81V256.728ZM1004.85 265.24H1025.65V268.12H1004.85V265.24ZM1039.29 271.48H1066.11V274.808H1039.29V271.48ZM1050.55 268.312H1054.81V272.696H1050.55V268.312ZM1042.62 266.456H1063.26V269.688H1042.62V266.456ZM1042.62 256.952H1063.03V260.184H1046.84V268.28H1042.62V256.952ZM1045.66 261.752H1062.36V264.856H1045.66V261.752ZM1052.67 276.12C1059.16 276.12 1062.94 277.848 1062.94 280.984C1062.94 284.152 1059.16 285.848 1052.67 285.848C1046.14 285.848 1042.36 284.152 1042.36 280.984C1042.36 277.848 1046.14 276.12 1052.67 276.12ZM1052.67 279.256C1048.54 279.256 1046.65 279.768 1046.65 280.984C1046.65 282.232 1048.54 282.744 1052.67 282.744C1056.76 282.744 1058.65 282.232 1058.65 280.984C1058.65 279.768 1056.76 279.256 1052.67 279.256ZM1069.21 260.664H1083.38V264.056H1069.21V260.664ZM1076.34 265.368C1080.12 265.368 1082.84 268.28 1082.84 272.44C1082.84 276.568 1080.12 279.48 1076.34 279.48C1072.6 279.48 1069.85 276.568 1069.85 272.44C1069.85 268.28 1072.6 265.368 1076.34 265.368ZM1076.34 268.92C1074.74 268.92 1073.62 270.2 1073.62 272.44C1073.62 274.68 1074.74 275.928 1076.34 275.928C1077.94 275.928 1079.09 274.68 1079.09 272.44C1079.09 270.2 1077.94 268.92 1076.34 268.92ZM1090.65 256.216H1094.71V285.848H1090.65V256.216ZM1087.09 268.248H1091.99V271.672H1087.09V268.248ZM1084.44 256.76H1088.41V284.6H1084.44V256.76ZM1074.26 257.016H1078.45V262.808H1074.26V257.016ZM1107.91 258.648H1122.02V272.952H1107.91V258.648ZM1117.83 262.008H1112.1V269.592H1117.83V262.008ZM1126.11 256.216H1130.37V277.816H1126.11V256.216ZM1129.15 264.76H1134.31V268.248H1129.15V264.76ZM1111.27 281.944H1131.43V285.336H1111.27V281.944ZM1111.27 275.704H1115.52V283.64H1111.27V275.704ZM1136.99 267.704H1163.81V271.064H1136.99V267.704ZM1140.29 262.776H1160.64V266.104H1140.29V262.776ZM1140.29 256.76H1160.38V260.152H1144.51V265.656H1140.29V256.76ZM1140.03 272.728H1160.51V280.568H1144.26V283.128H1140.06V277.56H1156.32V275.928H1140.03V272.728ZM1140.06 282.36H1161.28V285.624H1140.06V282.36ZM1175.01 258.264C1179.42 258.264 1182.65 262.36 1182.65 268.824C1182.65 275.352 1179.42 279.448 1175.01 279.448C1170.56 279.448 1167.36 275.352 1167.36 268.824C1167.36 262.36 1170.56 258.264 1175.01 258.264ZM1175.01 262.136C1172.86 262.136 1171.42 264.472 1171.42 268.824C1171.42 273.24 1172.86 275.608 1175.01 275.608C1177.18 275.608 1178.59 273.24 1178.59 268.824C1178.59 264.472 1177.18 262.136 1175.01 262.136ZM1187.52 256.184H1191.74V285.912H1187.52V256.184ZM1181.41 266.872H1189.31V270.296H1181.41V266.872ZM1204 259.512H1207.52V262.008C1207.52 267.608 1204.8 272.664 1199.1 274.52L1196.92 271.192C1201.85 269.592 1204 265.752 1204 262.008V259.512ZM1204.86 259.512H1208.35V262.008C1208.35 265.528 1210.46 269.144 1215.29 270.68L1213.12 273.976C1207.55 272.216 1204.86 267.384 1204.86 262.008V259.512ZM1198.04 258.328H1214.17V261.688H1198.04V258.328ZM1217.15 256.248H1221.44V277.624H1217.15V256.248ZM1201.69 281.944H1222.17V285.336H1201.69V281.944ZM1201.69 275.704H1205.95V283.64H1201.69V275.704ZM964.753 311.464H972.561V314.888H964.753V311.464ZM956.689 304.488H960.145V308.776C960.145 316.232 957.617 323.112 952.049 325.896L949.393 322.472C954.449 320.136 956.689 314.408 956.689 308.776V304.488ZM957.585 304.488H960.977V308.776C960.977 314.408 963.121 319.816 968.017 321.992L965.489 325.384C959.921 322.696 957.585 316.168 957.585 308.776V304.488ZM970.449 302.184H974.673V331.912H970.449V302.184ZM1000.05 302.184H1004.33V331.912H1000.05V302.184ZM981.198 304.552H985.422V311.752H991.534V304.552H995.758V325H981.198V304.552ZM985.422 315.048V321.576H991.534V315.048H985.422ZM1020.65 303.912H1024.36V306.056C1024.36 312.488 1019.79 318.184 1012.11 319.688L1010.28 316.168C1016.97 315.016 1020.65 310.312 1020.65 306.056V303.912ZM1021.52 303.912H1025.2V306.056C1025.2 310.408 1028.84 315.016 1035.56 316.168L1033.74 319.688C1026.06 318.184 1021.52 312.584 1021.52 306.056V303.912ZM1009.68 324.776H1036.49V328.232H1009.68V324.776ZM1039.59 313.704H1066.41V317.064H1039.59V313.704ZM1042.89 308.776H1063.24V312.104H1042.89V308.776ZM1042.89 302.76H1062.99V306.152H1047.11V311.656H1042.89V302.76ZM1042.63 318.728H1063.11V326.568H1046.86V329.128H1042.67V323.56H1058.92V321.928H1042.63V318.728ZM1042.67 328.36H1063.88V331.624H1042.67V328.36ZM1089.83 302.216H1094.12V318.152H1089.83V302.216ZM1074.41 319.432H1078.6V322.184H1089.89V319.432H1094.12V331.528H1074.41V319.432ZM1078.6 325.448V328.136H1089.89V325.448H1078.6ZM1077.99 303.432C1082.6 303.432 1086.02 306.344 1086.02 310.44C1086.02 314.536 1082.6 317.448 1077.99 317.448C1073.38 317.448 1069.93 314.536 1069.93 310.44C1069.93 306.344 1073.38 303.432 1077.99 303.432ZM1077.99 306.952C1075.72 306.952 1074.09 308.264 1074.09 310.44C1074.09 312.648 1075.72 313.928 1077.99 313.928C1080.23 313.928 1081.86 312.648 1081.86 310.44C1081.86 308.264 1080.23 306.952 1077.99 306.952ZM1119.91 302.216H1124.16V331.848H1119.91V302.216ZM1100.96 305.032H1105.19V323.432H1100.96V305.032ZM1100.96 320.936H1103.59C1107.91 320.936 1112.71 320.616 1117.6 319.656L1118.08 323.176C1113 324.232 1108.1 324.552 1103.59 324.552H1100.96V320.936ZM1148.26 302.184H1152.55V331.912H1148.26V302.184ZM1151.59 313.16H1156.83V316.648H1151.59V313.16ZM1130.47 321.256H1132.96C1137.95 321.256 1141.89 321.096 1146.24 320.328L1146.66 323.848C1142.18 324.648 1138.11 324.776 1132.96 324.776H1130.47V321.256ZM1130.47 304.936H1144.29V308.36H1134.69V322.952H1130.47V304.936Z" fill="white"/>
<defs>
<filter id="filter0_d_1651_342" x="44.9678" y="166.776" width="296.216" height="52.592" filterUnits="userSpaceOnUse" color-interpolation-filters="sRGB">
<feFlood flood-opacity="0" result="BackgroundImageFix"/>
<feColorMatrix in="SourceAlpha" type="matrix" values="0 0 0 0 0 0 0 0 0 0 0 0 0 0 0 0 0 0 127 0" result="hardAlpha"/>
<feOffset dy="4"/>
<feGaussianBlur stdDeviation="2"/>
<feComposite in2="hardAlpha" operator="out"/>
<feColorMatrix type="matrix" values="0 0 0 0 0 0 0 0 0 0 0 0 0 0 0 0 0 0 0.25 0"/>
<feBlend mode="normal" in2="BackgroundImageFix" result="effect1_dropShadow_1651_342"/>
<feBlend mode="normal" in="SourceGraphic" in2="effect1_dropShadow_1651_342" result="shape"/>
</filter>
<filter id="filter1_d_1651_342" x="153.636" y="33.2273" width="62.1704" height="79.7273" filterUnits="userSpaceOnUse" color-interpolation-filters="sRGB">
<feFlood flood-opacity="0" result="BackgroundImageFix"/>
<feColorMatrix in="SourceAlpha" type="matrix" values="0 0 0 0 0 0 0 0 0 0 0 0 0 0 0 0 0 0 127 0" result="hardAlpha"/>
<feOffset dy="4"/>
<feGaussianBlur stdDeviation="2"/>
<feComposite in2="hardAlpha" operator="out"/>
<feColorMatrix type="matrix" values="0 0 0 0 0 0 0 0 0 0 0 0 0 0 0 0 0 0 0.25 0"/>
<feBlend mode="normal" in2="BackgroundImageFix" result="effect1_dropShadow_1651_342"/>
<feBlend mode="normal" in="SourceGraphic" in2="effect1_dropShadow_1651_342" result="shape"/>
</filter>
<filter id="filter2_d_1651_342" x="473.92" y="166.776" width="296.264" height="52.592" filterUnits="userSpaceOnUse" color-interpolation-filters="sRGB">
<feFlood flood-opacity="0" result="BackgroundImageFix"/>
<feColorMatrix in="SourceAlpha" type="matrix" values="0 0 0 0 0 0 0 0 0 0 0 0 0 0 0 0 0 0 127 0" result="hardAlpha"/>
<feOffset dy="4"/>
<feGaussianBlur stdDeviation="2"/>
<feComposite in2="hardAlpha" operator="out"/>
<feColorMatrix type="matrix" values="0 0 0 0 0 0 0 0 0 0 0 0 0 0 0 0 0 0 0.25 0"/>
<feBlend mode="normal" in2="BackgroundImageFix" result="effect1_dropShadow_1651_342"/>
<feBlend mode="normal" in="SourceGraphic" in2="effect1_dropShadow_1651_342" result="shape"/>
</filter>
<filter id="filter3_d_1651_342" x="503.875" y="33.2273" width="224.519" height="80.3069" filterUnits="userSpaceOnUse" color-interpolation-filters="sRGB">
<feFlood flood-opacity="0" result="BackgroundImageFix"/>
<feColorMatrix in="SourceAlpha" type="matrix" values="0 0 0 0 0 0 0 0 0 0 0 0 0 0 0 0 0 0 127 0" result="hardAlpha"/>
<feOffset dy="4"/>
<feGaussianBlur stdDeviation="2"/>
<feComposite in2="hardAlpha" operator="out"/>
<feColorMatrix type="matrix" values="0 0 0 0 0 0 0 0 0 0 0 0 0 0 0 0 0 0 0.25 0"/>
<feBlend mode="normal" in2="BackgroundImageFix" result="effect1_dropShadow_1651_342"/>
<feBlend mode="normal" in="SourceGraphic" in2="effect1_dropShadow_1651_342" result="shape"/>
</filter>
<filter id="filter4_d_1651_342" x="902.392" y="166.44" width="296.792" height="52.9281" filterUnits="userSpaceOnUse" color-interpolation-filters="sRGB">
<feFlood flood-opacity="0" result="BackgroundImageFix"/>
<feColorMatrix in="SourceAlpha" type="matrix" values="0 0 0 0 0 0 0 0 0 0 0 0 0 0 0 0 0 0 127 0" result="hardAlpha"/>
<feOffset dy="4"/>
<feGaussianBlur stdDeviation="2"/>
<feComposite in2="hardAlpha" operator="out"/>
<feColorMatrix type="matrix" values="0 0 0 0 0 0 0 0 0 0 0 0 0 0 0 0 0 0 0.25 0"/>
<feBlend mode="normal" in2="BackgroundImageFix" result="effect1_dropShadow_1651_342"/>
<feBlend mode="normal" in="SourceGraphic" in2="effect1_dropShadow_1651_342" result="shape"/>
</filter>
<filter id="filter5_d_1651_342" x="1011.6" y="34.1819" width="64.2842" height="77.8181" filterUnits="userSpaceOnUse" color-interpolation-filters="sRGB">
<feFlood flood-opacity="0" result="BackgroundImageFix"/>
<feColorMatrix in="SourceAlpha" type="matrix" values="0 0 0 0 0 0 0 0 0 0 0 0 0 0 0 0 0 0 127 0" result="hardAlpha"/>
<feOffset dy="4"/>
<feGaussianBlur stdDeviation="2"/>
<feComposite in2="hardAlpha" operator="out"/>
<feColorMatrix type="matrix" values="0 0 0 0 0 0 0 0 0 0 0 0 0 0 0 0 0 0 0.25 0"/>
<feBlend mode="normal" in2="BackgroundImageFix" result="effect1_dropShadow_1651_342"/>
<feBlend mode="normal" in="SourceGraphic" in2="effect1_dropShadow_1651_342" result="shape"/>
</filter>
</defs>
</svg>
