<svg width="470" height="102" viewBox="0 0 470 102" fill="none" xmlns="http://www.w3.org/2000/svg">
<path d="M9.51942 49.8682L19.9846 55.8483C21.2309 56.5605 22 57.8859 22 59.3213V61H29V37H22V38.6787C22 40.1141 21.2309 41.4395 19.9846 42.1517L9.51943 48.1318C8.84761 48.5157 8.84761 49.4843 9.51942 49.8682Z" fill="#FFC30D"/>
<rect x="22" y="12" width="440" height="78" rx="16" fill="#FFC30D"/>
<path d="M52.3239 59.2312C51.25 59.2312 50.3129 58.9851 49.5124 58.4929C48.712 58.0007 48.0906 57.3121 47.6481 56.4272C47.2056 55.5423 46.9844 54.5082 46.9844 53.3249C46.9844 52.1367 47.2056 51.0977 47.6481 50.2077C48.0906 49.3178 48.712 48.6268 49.5124 48.1346C50.3129 47.6424 51.25 47.3963 52.3239 47.3963C53.3977 47.3963 54.3349 47.6424 55.1353 48.1346C55.9357 48.6268 56.5572 49.3178 56.9996 50.2077C57.4421 51.0977 57.6634 52.1367 57.6634 53.3249C57.6634 54.5082 57.4421 55.5423 56.9996 56.4272C56.5572 57.3121 55.9357 58.0007 55.1353 58.4929C54.3349 58.9851 53.3977 59.2312 52.3239 59.2312ZM52.3313 57.3594C53.0273 57.3594 53.604 57.1754 54.0614 56.8075C54.5188 56.4396 54.8569 55.9499 55.0756 55.3384C55.2994 54.7269 55.4112 54.0533 55.4112 53.3175C55.4112 52.5866 55.2994 51.9155 55.0756 51.304C54.8569 50.6875 54.5188 50.1928 54.0614 49.82C53.604 49.4471 53.0273 49.2607 52.3313 49.2607C51.6303 49.2607 51.0487 49.4471 50.5863 49.82C50.1289 50.1928 49.7884 50.6875 49.5646 51.304C49.3459 51.9155 49.2365 52.5866 49.2365 53.3175C49.2365 54.0533 49.3459 54.7269 49.5646 55.3384C49.7884 55.9499 50.1289 56.4396 50.5863 56.8075C51.0487 57.1754 51.6303 57.3594 52.3313 57.3594ZM60.4673 63.2955V47.5455H62.6448V49.4023H62.8312C62.9605 49.1637 63.1469 48.8878 63.3906 48.5746C63.6342 48.2614 63.9722 47.9879 64.4048 47.7543C64.8373 47.5156 65.409 47.3963 66.12 47.3963C67.0447 47.3963 67.87 47.63 68.5958 48.0973C69.3217 48.5646 69.8909 49.2383 70.3035 50.1183C70.7212 50.9982 70.93 52.0572 70.93 53.2951C70.93 54.533 70.7236 55.5945 70.311 56.4794C69.8984 57.3594 69.3316 58.038 68.6107 58.5153C67.8898 58.9876 67.067 59.2237 66.1423 59.2237C65.4463 59.2237 64.8771 59.1069 64.4346 58.8732C63.9971 58.6396 63.654 58.3661 63.4055 58.0529C63.1569 57.7397 62.9655 57.4613 62.8312 57.2177H62.697V63.2955H60.4673ZM62.6523 53.2727C62.6523 54.0781 62.7691 54.7841 63.0028 55.3906C63.2364 55.9972 63.5745 56.4719 64.017 56.815C64.4594 57.1531 65.0013 57.3221 65.6427 57.3221C66.3089 57.3221 66.8657 57.1456 67.3131 56.7926C67.7606 56.4347 68.0986 55.9499 68.3273 55.3384C68.561 54.7269 68.6778 54.0384 68.6778 53.2727C68.6778 52.517 68.5635 51.8384 68.3348 51.2369C68.1111 50.6353 67.773 50.1605 67.3206 49.8125C66.8731 49.4645 66.3138 49.2905 65.6427 49.2905C64.9964 49.2905 64.4495 49.457 64.0021 49.7901C63.5596 50.1232 63.224 50.5881 62.9953 51.1847C62.7666 51.7812 62.6523 52.4773 62.6523 53.2727ZM78.68 59.2312C77.5514 59.2312 76.5795 58.9901 75.7641 58.5078C74.9538 58.0206 74.3274 57.337 73.8849 56.457C73.4474 55.5721 73.2286 54.5355 73.2286 53.3473C73.2286 52.174 73.4474 51.1399 73.8849 50.245C74.3274 49.3501 74.9438 48.6516 75.7343 48.1495C76.5298 47.6474 77.4595 47.3963 78.5234 47.3963C79.1697 47.3963 79.7961 47.5032 80.4026 47.717C81.0092 47.9308 81.5536 48.2663 82.0358 48.7237C82.518 49.1811 82.8984 49.7752 83.1768 50.506C83.4552 51.2319 83.5944 52.1143 83.5944 53.1534V53.9439H74.4889V52.2734H81.4094C81.4094 51.6868 81.2901 51.1673 81.0514 50.7148C80.8128 50.2575 80.4772 49.897 80.0447 49.6335C79.6171 49.37 79.115 49.2383 78.5383 49.2383C77.9119 49.2383 77.365 49.3924 76.8977 49.7006C76.4353 50.0039 76.0774 50.4016 75.8238 50.8938C75.5752 51.381 75.4509 51.9105 75.4509 52.4822V53.7873C75.4509 54.5529 75.5852 55.2042 75.8536 55.7411C76.1271 56.2781 76.5074 56.6882 76.9946 56.9716C77.4818 57.25 78.0511 57.3892 78.7024 57.3892C79.1249 57.3892 79.5102 57.3295 79.8582 57.2102C80.2063 57.0859 80.507 56.902 80.7606 56.6584C81.0141 56.4148 81.208 56.114 81.3423 55.756L83.4527 56.1364C83.2837 56.7578 82.9804 57.3022 82.5429 57.7695C82.1104 58.2319 81.566 58.5923 80.9097 58.8509C80.2585 59.1044 79.5152 59.2312 78.68 59.2312ZM88.6131 52.1989V59H86.3834V47.5455H88.5237V49.4098H88.6653C88.9288 48.8033 89.3415 48.3161 89.9033 47.9482C90.47 47.5803 91.1835 47.3963 92.0435 47.3963C92.8241 47.3963 93.5077 47.5604 94.0943 47.8885C94.681 48.2116 95.1359 48.6939 95.459 49.3352C95.7822 49.9766 95.9438 50.7695 95.9438 51.7141V59H93.714V51.9826C93.714 51.1523 93.4977 50.5036 93.0652 50.0362C92.6327 49.5639 92.0386 49.3278 91.2829 49.3278C90.7658 49.3278 90.306 49.4396 89.9033 49.6634C89.5055 49.8871 89.1899 50.2152 88.9562 50.6477C88.7275 51.0753 88.6131 51.5923 88.6131 52.1989ZM106.591 59H104.145L109.641 43.7273H112.303L117.799 59H115.353L111.035 46.5014H110.916L106.591 59ZM107.001 53.0192H114.936V54.9581H107.001V53.0192ZM120.32 59V43.7273H125.764C126.952 43.7273 127.936 43.9435 128.717 44.3761C129.497 44.8086 130.082 45.4002 130.469 46.1509C130.857 46.8967 131.051 47.7369 131.051 48.6715C131.051 49.6112 130.855 50.4563 130.462 51.207C130.074 51.9528 129.487 52.5444 128.702 52.9819C127.921 53.4144 126.94 53.6307 125.756 53.6307H122.013V51.6768H125.547C126.298 51.6768 126.907 51.5476 127.375 51.2891C127.842 51.0256 128.185 50.6676 128.404 50.2152C128.622 49.7628 128.732 49.2482 128.732 48.6715C128.732 48.0948 128.622 47.5827 128.404 47.1353C128.185 46.6879 127.839 46.3374 127.367 46.0838C126.9 45.8303 126.283 45.7035 125.518 45.7035H122.624V59H120.32ZM136.372 43.7273V59H134.067V43.7273H136.372ZM141.725 47.345H154.619V48.773H141.725V47.345ZM139.394 51.314H156.614V52.742H139.394V51.314ZM141.725 42.347H143.447V48.059H141.725V42.347ZM141.599 58.748H154.724V60.176H141.599V58.748ZM141.599 54.632H143.321V59.126H141.599V54.632ZM179.348 41.654H181.028V60.638H179.348V41.654ZM176.135 49.256H179.789V50.705H176.135V49.256ZM175.043 42.074H176.681V59.672H175.043V42.074ZM165.593 54.506H166.832C169.604 54.506 171.494 54.401 173.699 53.939L173.867 55.388C171.599 55.871 169.688 55.955 166.832 55.955H165.593V54.506ZM165.593 43.964H172.649V45.392H167.315V55.157H165.593V43.964ZM192.282 49.151H195.873V50.579H192.282V49.151ZM188.418 46.505H189.762V47.492C189.762 51.272 188.187 55.094 185.415 56.753L184.386 55.43C186.948 53.939 188.418 50.6 188.418 47.492V46.505ZM188.733 46.505H190.077V47.492C190.077 50.516 191.589 53.645 194.151 55.031L193.164 56.333C190.371 54.779 188.733 51.188 188.733 47.492V46.505ZM184.911 45.14H193.584V46.589H184.911V45.14ZM188.418 42.326H190.098V46.253H188.418V42.326ZM198.981 41.654H200.661V60.638H198.981V41.654ZM195.18 42.095H196.818V59.672H195.18V42.095ZM215.121 43.103C217.872 43.103 219.846 45.686 219.846 49.718C219.846 53.771 217.872 56.354 215.121 56.354C212.349 56.354 210.396 53.771 210.396 49.718C210.396 45.686 212.349 43.103 215.121 43.103ZM215.121 44.678C213.294 44.678 212.055 46.652 212.055 49.718C212.055 52.805 213.294 54.821 215.121 54.821C216.948 54.821 218.187 52.805 218.187 49.718C218.187 46.652 216.948 44.678 215.121 44.678ZM223.962 41.633H225.684V60.659H223.962V41.633ZM219.279 48.878H224.718V50.306H219.279V48.878ZM232.297 52.952H245.821V54.317H232.297V52.952ZM239.038 55.199C242.44 55.199 244.414 56.165 244.414 57.929C244.414 59.672 242.44 60.617 239.038 60.617C235.678 60.617 233.683 59.672 233.683 57.929C233.683 56.165 235.678 55.199 239.038 55.199ZM239.038 56.438C236.833 56.438 235.51 56.963 235.51 57.929C235.51 58.874 236.833 59.399 239.038 59.399C241.264 59.399 242.587 58.874 242.587 57.929C242.587 56.963 241.264 56.438 239.038 56.438ZM238.198 51.146H239.941V53.855H238.198V51.146ZM230.176 49.004H231.016C232.129 49.004 233.536 48.962 235.174 48.605L235.363 50.012C233.599 50.39 232.192 50.411 231.016 50.411H230.176V49.004ZM230.176 42.578H234.922V43.964H231.898V49.97H230.176V42.578ZM235.993 49.004H236.938C238.954 49.004 240.319 48.962 241.957 48.584L242.104 49.97C240.403 50.348 239.017 50.411 236.938 50.411H235.993V49.004ZM235.993 42.578H241.243V43.964H237.715V49.97H235.993V42.578ZM243.763 41.654H245.506V51.734H243.763V41.654ZM240.382 45.602H244.708V46.946H240.382V45.602ZM263.775 41.654H265.455V60.638H263.775V41.654ZM255.543 49.403H260.331V50.81H255.543V49.403ZM259.827 42.137H261.465V59.672H259.827V42.137ZM255.774 44.048H257.454C257.454 49.025 255.459 53.498 250.335 56.543L249.306 55.304C253.779 52.616 255.774 48.836 255.774 44.363V44.048ZM250.146 44.048H256.425V45.476H250.146V44.048ZM278.781 43.166H280.146V45.581C280.146 48.353 278.655 51.398 275.904 52.679L274.98 51.377C277.416 50.243 278.781 47.681 278.781 45.581V43.166ZM279.159 43.166H280.524V45.581C280.524 47.576 281.721 50.285 284.157 51.503L283.38 52.91C280.482 51.545 279.159 48.227 279.159 45.581V43.166ZM286.257 43.166H287.601V45.581C287.601 48.353 286.299 51.587 283.38 52.91L282.624 51.503C285.06 50.327 286.257 47.702 286.257 45.581V43.166ZM286.656 43.166H288V45.581C288 47.891 289.344 50.306 291.822 51.377L290.877 52.679C288.105 51.44 286.656 48.584 286.656 45.581V43.166ZM274.812 56.648H292.032V58.097H274.812V56.648ZM296.776 47.345H309.67V48.773H296.776V47.345ZM294.445 51.314H311.665V52.742H294.445V51.314ZM296.776 42.347H298.498V48.059H296.776V42.347ZM296.65 58.748H309.775V60.176H296.65V58.748ZM296.65 54.632H298.372V59.126H296.65V54.632ZM327.959 41.654H329.702V60.638H327.959V41.654ZM323.528 49.256H328.736V50.705H323.528V49.256ZM321.869 43.691H323.591C323.591 49.109 321.344 53.897 315.044 57.047L314.078 55.682C319.601 52.973 321.869 48.941 321.869 43.985V43.691ZM314.897 43.691H322.793V45.119H314.897V43.691ZM338.773 43.103C341.566 43.103 343.54 45.686 343.54 49.718C343.54 53.771 341.566 56.354 338.773 56.354C335.98 56.354 334.006 53.771 334.006 49.718C334.006 45.686 335.98 43.103 338.773 43.103ZM338.773 44.678C336.925 44.678 335.665 46.652 335.665 49.718C335.665 52.805 336.925 54.821 338.773 54.821C340.6 54.821 341.881 52.805 341.881 49.718C341.881 46.652 340.6 44.678 338.773 44.678ZM347.845 46.421H351.331V47.891H347.845V46.421ZM347.845 52.07H351.331V53.54H347.845V52.07ZM346.564 41.654H348.328V60.638H346.564V41.654ZM356.254 54.6076V54.4659C356.264 53.5412 356.356 52.8054 356.53 52.2585C356.709 51.7116 356.962 51.2692 357.29 50.9311C357.618 50.593 358.014 50.2848 358.476 50.0064C358.774 49.8175 359.043 49.6062 359.281 49.3725C359.52 49.1388 359.709 48.8704 359.848 48.5671C359.987 48.2638 360.057 47.9283 360.057 47.5604C360.057 47.1179 359.953 46.7351 359.744 46.4119C359.535 46.0888 359.257 45.8402 358.908 45.6662C358.565 45.4872 358.183 45.3977 357.76 45.3977C357.377 45.3977 357.012 45.4773 356.664 45.6364C356.316 45.7955 356.027 46.044 355.799 46.3821C355.57 46.7152 355.438 47.1452 355.404 47.6722H353.136C353.171 46.7773 353.397 46.0217 353.815 45.4052C354.233 44.7837 354.785 44.3139 355.471 43.9957C356.162 43.6776 356.925 43.5185 357.76 43.5185C358.675 43.5185 359.475 43.69 360.161 44.033C360.847 44.3711 361.379 44.8459 361.757 45.4574C362.14 46.0639 362.331 46.7724 362.331 47.5827C362.331 48.1396 362.244 48.6417 362.07 49.0891C361.896 49.5316 361.648 49.9268 361.325 50.2749C361.007 50.6229 360.624 50.9311 360.176 51.1996C359.754 51.4631 359.411 51.7365 359.147 52.0199C358.889 52.3033 358.7 52.6388 358.58 53.0266C358.461 53.4144 358.396 53.8942 358.386 54.4659V54.6076H356.254ZM357.38 59.1417C356.972 59.1417 356.622 58.9975 356.328 58.7092C356.035 58.4158 355.888 58.0629 355.888 57.6502C355.888 57.2425 356.035 56.8945 356.328 56.6062C356.622 56.3129 356.972 56.1662 357.38 56.1662C357.782 56.1662 358.13 56.3129 358.424 56.6062C358.722 56.8945 358.871 57.2425 358.871 57.6502C358.871 57.9237 358.802 58.1747 358.662 58.4034C358.528 58.6271 358.349 58.8061 358.125 58.9403C357.902 59.0746 357.653 59.1417 357.38 59.1417Z" fill="black"/>
</svg>
