<svg width="315" height="102" viewBox="0 0 315 102" fill="none" xmlns="http://www.w3.org/2000/svg">
<path d="M9.51942 49.8682L19.9846 55.8483C21.2309 56.5605 22 57.8859 22 59.3213V61H29V37H22V38.6787C22 40.1141 21.2309 41.4395 19.9846 42.1517L9.51943 48.1318C8.84761 48.5157 8.84761 49.4843 9.51942 49.8682Z" fill="#FFC30D"/>
<rect x="22" y="12" width="285" height="78" rx="16" fill="#FFC30D"/>
<path d="M58.0138 48.5522C57.8697 48.0998 57.6758 47.6946 57.4322 47.3366C57.1935 46.9737 56.9077 46.6655 56.5746 46.4119C56.2415 46.1534 55.8612 45.957 55.4336 45.8228C55.011 45.6886 54.5462 45.6214 54.0391 45.6214C53.179 45.6214 52.4034 45.8427 51.7124 46.2852C51.0213 46.7276 50.4744 47.3764 50.0717 48.2315C49.674 49.0817 49.4751 50.1232 49.4751 51.3562C49.4751 52.5941 49.6765 53.6406 50.0792 54.4957C50.4819 55.3509 51.0337 55.9996 51.7347 56.4421C52.4357 56.8846 53.2337 57.1058 54.1286 57.1058C54.9588 57.1058 55.6822 56.9368 56.2987 56.5987C56.9201 56.2607 57.3999 55.7834 57.7379 55.1669C58.081 54.5455 58.2525 53.8146 58.2525 52.9744L58.8491 53.0863H54.479V51.1847H60.4822V52.9222C60.4822 54.2049 60.2088 55.3185 59.6619 56.2631C59.12 57.2028 58.3693 57.9286 57.4098 58.4407C56.4553 58.9528 55.3615 59.2088 54.1286 59.2088C52.7464 59.2088 51.5334 58.8906 50.4893 58.2543C49.4503 57.6179 48.6399 56.7156 48.0582 55.5472C47.4766 54.3739 47.1857 52.9819 47.1857 51.3711C47.1857 50.1531 47.3548 49.0593 47.6928 48.0898C48.0309 47.1204 48.5057 46.2976 49.1172 45.6214C49.7337 44.9403 50.457 44.4208 51.2873 44.0629C52.1225 43.6999 53.0348 43.5185 54.0241 43.5185C54.8494 43.5185 55.6175 43.6403 56.3285 43.8839C57.0444 44.1275 57.6808 44.473 58.2376 44.9205C58.7994 45.3679 59.2642 45.8999 59.6321 46.5163C60 47.1278 60.2486 47.8065 60.3778 48.5522H58.0138ZM63.7224 59V43.7273H69.1663C70.3545 43.7273 71.3389 43.9435 72.1194 44.3761C72.9 44.8086 73.4841 45.4002 73.8719 46.1509C74.2597 46.8967 74.4536 47.7369 74.4536 48.6715C74.4536 49.6112 74.2572 50.4563 73.8645 51.207C73.4767 51.9528 72.89 52.5444 72.1045 52.9819C71.324 53.4144 70.3421 53.6307 69.1588 53.6307H65.4152V51.6768H68.95C69.7007 51.6768 70.3098 51.5476 70.7771 51.2891C71.2444 51.0256 71.5875 50.6676 71.8062 50.2152C72.025 49.7628 72.1343 49.2482 72.1343 48.6715C72.1343 48.0948 72.025 47.5827 71.8062 47.1353C71.5875 46.6879 71.2419 46.3374 70.7696 46.0838C70.3023 45.8303 69.6858 45.7035 68.9202 45.7035H66.0267V59H63.7224ZM76.7168 45.7109V43.7273H88.5368V45.7109H83.7715V59H81.4746V45.7109H76.7168ZM98.6265 59H96.1805L101.677 43.7273H104.339L109.835 59H107.389L103.071 46.5014H102.952L98.6265 59ZM99.0366 53.0192H106.971V54.9581H99.0366V53.0192ZM112.355 59V43.7273H117.799C118.988 43.7273 119.972 43.9435 120.752 44.3761C121.533 44.8086 122.117 45.4002 122.505 46.1509C122.893 46.8967 123.087 47.7369 123.087 48.6715C123.087 49.6112 122.89 50.4563 122.497 51.207C122.11 51.9528 121.523 52.5444 120.738 52.9819C119.957 53.4144 118.975 53.6307 117.792 53.6307H114.048V51.6768H117.583C118.334 51.6768 118.943 51.5476 119.41 51.2891C119.877 51.0256 120.221 50.6676 120.439 50.2152C120.658 49.7628 120.767 49.2482 120.767 48.6715C120.767 48.0948 120.658 47.5827 120.439 47.1353C120.221 46.6879 119.875 46.3374 119.403 46.0838C118.935 45.8303 118.319 45.7035 117.553 45.7035H114.66V59H112.355ZM128.407 43.7273V59H126.103V43.7273H128.407ZM143.014 50.474H144.736V54.044H143.014V50.474ZM140.284 53.498H142.027V55.535H151.036V53.498H152.758V60.386H140.284V53.498ZM142.027 56.9V58.979H151.036V56.9H142.027ZM151.015 41.654H152.758V52.553H151.015V41.654ZM137.575 51.398L137.344 49.97C140.893 49.97 145.618 49.949 149.755 49.403L149.881 50.663C145.639 51.377 141.04 51.398 137.575 51.398ZM142.783 42.116H144.19V43.061C144.19 45.812 142.111 47.975 138.94 48.773L138.163 47.45C140.935 46.778 142.783 45.056 142.783 43.061V42.116ZM143.161 42.116H144.589V43.061C144.589 44.993 146.458 46.589 149.167 47.156L148.432 48.5C145.282 47.765 143.161 45.728 143.161 43.061V42.116ZM171.404 41.654H173.084V60.638H171.404V41.654ZM163.172 49.403H167.96V50.81H163.172V49.403ZM167.456 42.137H169.094V59.672H167.456V42.137ZM163.403 44.048H165.083C165.083 49.025 163.088 53.498 157.964 56.543L156.935 55.304C161.408 52.616 163.403 48.836 163.403 44.363V44.048ZM157.775 44.048H164.054V45.476H157.775V44.048ZM186.515 41.885H187.838V42.914C187.838 45.035 186.473 47.408 183.785 48.395L182.945 47.114C185.234 46.295 186.515 44.384 186.515 42.914V41.885ZM186.914 41.885H188.237V42.914C188.237 44.363 189.455 46.358 191.681 47.24L191.009 48.605C188.216 47.597 186.914 44.951 186.914 42.914V41.885ZM193.802 41.885H195.125V42.914C195.125 45.056 193.823 47.618 191.009 48.605L190.358 47.24C192.584 46.379 193.802 44.447 193.802 42.914V41.885ZM194.201 41.885H195.524V42.914C195.524 44.573 196.784 46.358 199.094 47.114L198.275 48.395C195.566 47.492 194.201 45.203 194.201 42.914V41.885ZM182.441 49.697H199.598V51.104H182.441V49.697ZM184.52 52.658H197.414V57.089H186.284V59.504H184.562V55.808H195.692V54.002H184.52V52.658ZM184.562 59.063H197.981V60.428H184.562V59.063ZM215.633 42.326H217.166V43.376C217.166 47.009 213.47 49.613 209.522 50.285L208.829 48.878C212.294 48.353 215.633 46.085 215.633 43.376V42.326ZM215.948 42.326H217.46V43.376C217.46 46.022 220.841 48.353 224.264 48.878L223.571 50.285C219.665 49.613 215.948 46.967 215.948 43.376V42.326ZM215.633 53.414H217.355V60.638H215.633V53.414ZM207.968 52.343H225.125V53.792H207.968V52.343ZM235.637 52.784H237.275V55.157H240.593V52.784H242.21V60.386H235.637V52.784ZM237.275 56.459V59.021H240.593V56.459H237.275ZM245.885 52.679H247.229V54.254C247.229 56.837 245.927 59.441 243.302 60.554L242.42 59.231C244.709 58.265 245.885 56.186 245.885 54.254V52.679ZM246.242 52.679H247.586V54.254C247.586 56.291 248.762 58.349 251.051 59.231L250.169 60.554C247.523 59.462 246.242 56.942 246.242 54.254V52.679ZM243.008 46.106H248.111V47.555H243.008V46.106ZM238.64 42.494C241.475 42.494 243.533 44.258 243.533 46.862C243.533 49.445 241.475 51.23 238.64 51.23C235.805 51.23 233.747 49.445 233.747 46.862C233.747 44.258 235.805 42.494 238.64 42.494ZM238.64 43.943C236.771 43.943 235.427 45.14 235.427 46.862C235.427 48.563 236.771 49.781 238.64 49.781C240.509 49.781 241.853 48.563 241.853 46.862C241.853 45.14 240.509 43.943 238.64 43.943ZM247.334 41.654H249.077V51.713H247.334V41.654ZM267.22 49.214H270.727V50.684H267.22V49.214ZM265.939 41.633H267.703V60.638H265.939V41.633ZM253.843 43.502H255.586V55.262H253.843V43.502ZM253.843 54.359H255.355C258.169 54.359 261.046 54.17 264.175 53.519L264.385 54.968C261.151 55.64 258.232 55.829 255.355 55.829H253.843V54.359ZM275.628 54.6076V54.4659C275.638 53.5412 275.73 52.8054 275.904 52.2585C276.083 51.7116 276.337 51.2692 276.665 50.9311C276.993 50.593 277.388 50.2848 277.851 50.0064C278.149 49.8175 278.417 49.6062 278.656 49.3725C278.895 49.1388 279.084 48.8704 279.223 48.5671C279.362 48.2638 279.432 47.9283 279.432 47.5604C279.432 47.1179 279.327 46.7351 279.118 46.4119C278.91 46.0888 278.631 45.8402 278.283 45.6662C277.94 45.4872 277.557 45.3977 277.135 45.3977C276.752 45.3977 276.387 45.4773 276.039 45.6364C275.691 45.7955 275.402 46.044 275.174 46.3821C274.945 46.7152 274.813 47.1452 274.778 47.6722H272.511C272.546 46.7773 272.772 46.0217 273.19 45.4052C273.607 44.7837 274.159 44.3139 274.845 43.9957C275.536 43.6776 276.3 43.5185 277.135 43.5185C278.05 43.5185 278.85 43.69 279.536 44.033C280.222 44.3711 280.754 44.8459 281.132 45.4574C281.515 46.0639 281.706 46.7724 281.706 47.5827C281.706 48.1396 281.619 48.6417 281.445 49.0891C281.271 49.5316 281.023 49.9268 280.699 50.2749C280.381 50.6229 279.998 50.9311 279.551 51.1996C279.128 51.4631 278.785 51.7365 278.522 52.0199C278.263 52.3033 278.074 52.6388 277.955 53.0266C277.836 53.4144 277.771 53.8942 277.761 54.4659V54.6076H275.628ZM276.754 59.1417C276.347 59.1417 275.996 58.9975 275.703 58.7092C275.41 58.4158 275.263 58.0629 275.263 57.6502C275.263 57.2425 275.41 56.8945 275.703 56.6062C275.996 56.3129 276.347 56.1662 276.754 56.1662C277.157 56.1662 277.505 56.3129 277.799 56.6062C278.097 56.8945 278.246 57.2425 278.246 57.6502C278.246 57.9237 278.176 58.1747 278.037 58.4034C277.903 58.6271 277.724 58.8061 277.5 58.9403C277.277 59.0746 277.028 59.1417 276.754 59.1417Z" fill="black"/>
</svg>
