<svg width="316" height="102" viewBox="0 0 316 102" fill="none" xmlns="http://www.w3.org/2000/svg">
<path d="M9.51942 49.8682L19.9846 55.8483C21.2309 56.5605 22 57.8859 22 59.3213V61H29V37H22V38.6787C22 40.1141 21.2309 41.4395 19.9846 42.1517L9.51943 48.1318C8.84761 48.5157 8.84761 49.4843 9.51942 49.8682Z" fill="#FFC30D"/>
<rect x="22" y="12" width="294" height="78" rx="16" fill="#FFC30D"/>
<path d="M48.968 59H46.522L52.0181 43.7273H54.6804L60.1765 59H57.7305L53.4126 46.5014H53.2933L48.968 59ZM49.3782 53.0192H57.3129V54.9581H49.3782V53.0192ZM62.697 59V43.7273H68.1409C69.3291 43.7273 70.3135 43.9435 71.094 44.3761C71.8746 44.8086 72.4587 45.4002 72.8465 46.1509C73.2343 46.8967 73.4282 47.7369 73.4282 48.6715C73.4282 49.6112 73.2318 50.4563 72.8391 51.207C72.4513 51.9528 71.8646 52.5444 71.0791 52.9819C70.2986 53.4144 69.3167 53.6307 68.1334 53.6307H64.3898V51.6768H67.9246C68.6754 51.6768 69.2844 51.5476 69.7517 51.2891C70.219 51.0256 70.5621 50.6676 70.7808 50.2152C70.9996 49.7628 71.1089 49.2482 71.1089 48.6715C71.1089 48.0948 70.9996 47.5827 70.7808 47.1353C70.5621 46.6879 70.2165 46.3374 69.7442 46.0838C69.2769 45.8303 68.6604 45.7035 67.8948 45.7035H65.0013V59H62.697ZM78.749 43.7273V59H76.4446V43.7273H78.749ZM100.642 41.654H102.385V55.535H100.642V41.654ZM101.839 47.408H105.199V48.857H101.839V47.408ZM95.4555 43.124H97.3035C97.3035 48.038 93.8595 51.629 88.4205 53.372L87.6645 51.944C92.4525 50.474 95.4555 47.534 95.4555 43.88V43.124ZM88.4415 43.124H96.3375V44.552H88.4415V43.124ZM90.5415 58.79H103.225V60.218H90.5415V58.79ZM90.5415 54.128H92.2845V59.357H90.5415V54.128ZM121.158 41.654H122.901V55.787H121.158V41.654ZM107.844 43.187H117.84V44.615H107.844V43.187ZM107.529 52.931L107.34 51.44C110.448 51.44 114.879 51.398 118.428 50.978L118.533 52.28C114.879 52.868 110.616 52.931 107.529 52.931ZM109.734 44.405H111.414V51.692H109.734V44.405ZM114.27 44.405H115.95V51.692H114.27V44.405ZM118.008 45.245H122.082V46.673H118.008V45.245ZM118.008 48.878H122.082V50.306H118.008V48.878ZM110.763 58.79H123.405V60.218H110.763V58.79ZM110.763 54.632H112.506V59.693H110.763V54.632ZM139.783 41.654H141.526V60.638H139.783V41.654ZM141.106 49.445H144.634V50.915H141.106V49.445ZM126.826 44.678H138.019V46.106H126.826V44.678ZM132.496 47.681C135.184 47.681 137.116 49.487 137.116 52.049C137.116 54.611 135.184 56.417 132.496 56.417C129.829 56.417 127.876 54.611 127.876 52.049C127.876 49.487 129.829 47.681 132.496 47.681ZM132.496 49.13C130.774 49.13 129.535 50.327 129.535 52.049C129.535 53.75 130.774 54.968 132.496 54.968C134.218 54.968 135.457 53.75 135.457 52.049C135.457 50.327 134.218 49.13 132.496 49.13ZM131.593 41.885H133.336V45.329H131.593V41.885ZM161.013 41.654H162.693V60.638H161.013V41.654ZM152.781 49.403H157.569V50.81H152.781V49.403ZM157.065 42.137H158.703V59.672H157.065V42.137ZM153.012 44.048H154.692C154.692 49.025 152.697 53.498 147.573 56.543L146.544 55.304C151.017 52.616 153.012 48.836 153.012 44.363V44.048ZM147.384 44.048H153.663V45.476H147.384V44.048ZM176.124 41.885H177.447V42.914C177.447 45.035 176.082 47.408 173.394 48.395L172.554 47.114C174.843 46.295 176.124 44.384 176.124 42.914V41.885ZM176.523 41.885H177.846V42.914C177.846 44.363 179.064 46.358 181.29 47.24L180.618 48.605C177.825 47.597 176.523 44.951 176.523 42.914V41.885ZM183.411 41.885H184.734V42.914C184.734 45.056 183.432 47.618 180.618 48.605L179.967 47.24C182.193 46.379 183.411 44.447 183.411 42.914V41.885ZM183.81 41.885H185.133V42.914C185.133 44.573 186.393 46.358 188.703 47.114L187.884 48.395C185.175 47.492 183.81 45.203 183.81 42.914V41.885ZM172.05 49.697H189.207V51.104H172.05V49.697ZM174.129 52.658H187.023V57.089H175.893V59.504H174.171V55.808H185.301V54.002H174.129V52.658ZM174.171 59.063H187.59V60.428H174.171V59.063ZM205.242 42.326H206.775V43.376C206.775 47.009 203.079 49.613 199.131 50.285L198.438 48.878C201.903 48.353 205.242 46.085 205.242 43.376V42.326ZM205.557 42.326H207.069V43.376C207.069 46.022 210.45 48.353 213.873 48.878L213.18 50.285C209.274 49.613 205.557 46.967 205.557 43.376V42.326ZM205.242 53.414H206.964V60.638H205.242V53.414ZM197.577 52.343H214.734V53.792H197.577V52.343ZM225.246 52.784H226.884V55.157H230.202V52.784H231.819V60.386H225.246V52.784ZM226.884 56.459V59.021H230.202V56.459H226.884ZM235.494 52.679H236.838V54.254C236.838 56.837 235.536 59.441 232.911 60.554L232.029 59.231C234.318 58.265 235.494 56.186 235.494 54.254V52.679ZM235.851 52.679H237.195V54.254C237.195 56.291 238.371 58.349 240.66 59.231L239.778 60.554C237.132 59.462 235.851 56.942 235.851 54.254V52.679ZM232.617 46.106H237.72V47.555H232.617V46.106ZM228.249 42.494C231.084 42.494 233.142 44.258 233.142 46.862C233.142 49.445 231.084 51.23 228.249 51.23C225.414 51.23 223.356 49.445 223.356 46.862C223.356 44.258 225.414 42.494 228.249 42.494ZM228.249 43.943C226.38 43.943 225.036 45.14 225.036 46.862C225.036 48.563 226.38 49.781 228.249 49.781C230.118 49.781 231.462 48.563 231.462 46.862C231.462 45.14 230.118 43.943 228.249 43.943ZM236.943 41.654H238.686V51.713H236.943V41.654ZM251.284 41.969C255.463 41.969 257.962 43.145 257.962 45.266C257.962 47.387 255.463 48.563 251.284 48.563C247.084 48.563 244.606 47.387 244.606 45.266C244.606 43.145 247.084 41.969 251.284 41.969ZM251.284 43.292C248.176 43.292 246.391 44.006 246.391 45.266C246.391 46.526 248.176 47.24 251.284 47.24C254.371 47.24 256.156 46.526 256.156 45.266C256.156 44.006 254.371 43.292 251.284 43.292ZM242.695 49.823H259.852V51.23H242.695V49.823ZM244.774 52.847H257.668V57.131H246.538V59.441H244.816V55.871H255.946V54.191H244.774V52.847ZM244.816 59.063H258.235V60.428H244.816V59.063ZM275.516 41.654H277.238V60.638H275.516V41.654ZM276.692 49.466H280.073V50.936H276.692V49.466ZM266.423 43.691H268.019C268.019 48.269 267.053 52.7 263.651 56.375L262.244 55.388C265.373 52.133 266.423 48.185 266.423 43.88V43.691ZM262.853 43.691H267.074V45.14H262.853V43.691ZM271.589 43.691H273.206C273.206 48.29 272.555 53.498 269.069 57.635L267.662 56.669C270.875 52.952 271.589 48.248 271.589 43.859V43.691ZM268.628 43.691H272.303V45.14H268.628V43.691ZM284.87 54.6076V54.4659C284.88 53.5412 284.972 52.8054 285.146 52.2585C285.325 51.7116 285.579 51.2692 285.907 50.9311C286.235 50.593 286.63 50.2848 287.092 50.0064C287.391 49.8175 287.659 49.6062 287.898 49.3725C288.136 49.1388 288.325 48.8704 288.465 48.5671C288.604 48.2638 288.673 47.9283 288.673 47.5604C288.673 47.1179 288.569 46.7351 288.36 46.4119C288.151 46.0888 287.873 45.8402 287.525 45.6662C287.182 45.4872 286.799 45.3977 286.376 45.3977C285.994 45.3977 285.628 45.4773 285.28 45.6364C284.932 45.7955 284.644 46.044 284.415 46.3821C284.186 46.7152 284.055 47.1452 284.02 47.6722H281.753C281.788 46.7773 282.014 46.0217 282.432 45.4052C282.849 44.7837 283.401 44.3139 284.087 43.9957C284.778 43.6776 285.541 43.5185 286.376 43.5185C287.291 43.5185 288.092 43.69 288.778 44.033C289.464 44.3711 289.996 44.8459 290.374 45.4574C290.756 46.0639 290.948 46.7724 290.948 47.5827C290.948 48.1396 290.861 48.6417 290.687 49.0891C290.513 49.5316 290.264 49.9268 289.941 50.2749C289.623 50.6229 289.24 50.9311 288.793 51.1996C288.37 51.4631 288.027 51.7365 287.764 52.0199C287.505 52.3033 287.316 52.6388 287.197 53.0266C287.077 53.4144 287.013 53.8942 287.003 54.4659V54.6076H284.87ZM285.996 59.1417C285.588 59.1417 285.238 58.9975 284.945 58.7092C284.651 58.4158 284.505 58.0629 284.505 57.6502C284.505 57.2425 284.651 56.8945 284.945 56.6062C285.238 56.3129 285.588 56.1662 285.996 56.1662C286.399 56.1662 286.747 56.3129 287.04 56.6062C287.338 56.8945 287.488 57.2425 287.488 57.6502C287.488 57.9237 287.418 58.1747 287.279 58.4034C287.145 58.6271 286.966 58.8061 286.742 58.9403C286.518 59.0746 286.27 59.1417 285.996 59.1417Z" fill="black"/>
</svg>
