<svg width="462" height="102" viewBox="0 0 462 102" fill="none" xmlns="http://www.w3.org/2000/svg">
<path d="M9.51942 49.8682L19.9846 55.8483C21.2309 56.5605 22 57.8859 22 59.3213V61H29V37H22V38.6787C22 40.1141 21.2309 41.4395 19.9846 42.1517L9.51943 48.1318C8.84761 48.5157 8.84761 49.4843 9.51942 49.8682Z" fill="#FFC30D"/>
<rect x="22" y="12" width="440" height="78" rx="16" fill="#FFC30D"/>
<path d="M60.826 41.633H62.569V60.659H60.826V41.633ZM52.552 43.103C55.366 43.103 57.382 45.686 57.382 49.718C57.382 53.771 55.366 56.354 52.552 56.354C49.759 56.354 47.743 53.771 47.743 49.718C47.743 45.686 49.759 43.103 52.552 43.103ZM52.552 44.678C50.704 44.678 49.402 46.652 49.402 49.718C49.402 52.805 50.704 54.821 52.552 54.821C54.421 54.821 55.702 52.805 55.702 49.718C55.702 46.652 54.421 44.678 52.552 44.678ZM67.4604 51.587H68.8884C72.6054 51.587 74.7894 51.503 77.3724 51.041L77.5194 52.469C74.8524 52.931 72.6474 53.015 68.8884 53.015H67.4604V51.587ZM67.4184 42.977H75.8184V48.542H69.1824V52.469H67.4604V47.177H74.1174V44.384H67.4184V42.977ZM80.5434 41.675H82.2864V55.598H80.5434V41.675ZM70.0434 58.79H82.8744V60.218H70.0434V58.79ZM70.0434 54.569H71.7864V59.231H70.0434V54.569ZM76.9944 46.589H80.9844V48.101H76.9944V46.589ZM106.049 41.654H107.792V60.638H106.049V41.654ZM101.618 49.256H106.826V50.705H101.618V49.256ZM99.9593 43.691H101.681C101.681 49.109 99.4343 53.897 93.1343 57.047L92.1683 55.682C97.6913 52.973 99.9593 48.941 99.9593 43.985V43.691ZM92.9873 43.691H100.883V45.119H92.9873V43.691ZM131.513 41.654H133.256V60.638H131.513V41.654ZM125.948 43.691H127.67C127.67 49.193 125.192 54.002 118.85 57.11L117.926 55.703C123.407 53.057 125.948 49.025 125.948 43.985V43.691ZM118.787 43.691H126.704V45.119H118.787V43.691ZM137.308 52.091H154.528V53.519H137.308V52.091ZM139.492 42.137H152.302V46.736H141.256V49.298H139.534V45.455H150.601V43.502H139.492V42.137ZM139.534 48.731H152.722V50.096H139.534V48.731ZM145.036 49.445H146.779V52.805H145.036V49.445ZM139.219 54.968H152.428V60.47H150.685V56.396H139.219V54.968ZM169.814 41.654H171.557V60.638H169.814V41.654ZM171.137 49.445H174.665V50.915H171.137V49.445ZM156.857 44.678H168.05V46.106H156.857V44.678ZM162.527 47.681C165.215 47.681 167.147 49.487 167.147 52.049C167.147 54.611 165.215 56.417 162.527 56.417C159.86 56.417 157.907 54.611 157.907 52.049C157.907 49.487 159.86 47.681 162.527 47.681ZM162.527 49.13C160.805 49.13 159.566 50.327 159.566 52.049C159.566 53.75 160.805 54.968 162.527 54.968C164.249 54.968 165.488 53.75 165.488 52.049C165.488 50.327 164.249 49.13 162.527 49.13ZM161.624 41.885H163.367V45.329H161.624V41.885ZM178.905 47.345H191.799V48.773H178.905V47.345ZM176.574 51.314H193.794V52.742H176.574V51.314ZM178.905 42.347H180.627V48.059H178.905V42.347ZM178.779 58.748H191.904V60.176H178.779V58.748ZM178.779 54.632H180.501V59.126H178.779V54.632ZM211.572 48.08H216.864V49.508H211.572V48.08ZM206.994 43.292H208.422V46.673C208.422 50.936 206.175 55.01 203.172 56.627L202.059 55.241C204.852 53.855 206.994 50.201 206.994 46.673V43.292ZM207.33 43.292H208.737V46.673C208.737 50.138 210.879 53.582 213.63 54.884L212.601 56.291C209.535 54.737 207.33 50.831 207.33 46.673V43.292ZM216.003 41.633H217.725V60.659H216.003V41.633ZM235.511 41.633H237.254V60.659H235.511V41.633ZM222.806 43.25H224.528V48.269H230.009V43.25H231.752V56.081H222.806V43.25ZM224.528 49.655V54.653H230.009V49.655H224.528ZM248.97 42.956H250.482V44.405C250.482 48.542 246.639 51.755 242.838 52.616L242.061 51.167C245.4 50.537 248.97 47.639 248.97 44.405V42.956ZM249.285 42.956H250.797V44.405C250.797 47.66 254.388 50.537 257.706 51.167L256.929 52.616C253.149 51.755 249.285 48.563 249.285 44.405V42.956ZM241.368 56.648H258.567V58.076H241.368V56.648ZM271.935 43.103C274.686 43.103 276.66 45.686 276.66 49.718C276.66 53.771 274.686 56.354 271.935 56.354C269.163 56.354 267.21 53.771 267.21 49.718C267.21 45.686 269.163 43.103 271.935 43.103ZM271.935 44.678C270.108 44.678 268.869 46.652 268.869 49.718C268.869 52.805 270.108 54.821 271.935 54.821C273.762 54.821 275.001 52.805 275.001 49.718C275.001 46.652 273.762 44.678 271.935 44.678ZM280.776 41.633H282.498V60.659H280.776V41.633ZM276.093 48.878H281.532V50.306H276.093V48.878ZM300.283 41.654H302.026V60.68H300.283V41.654ZM287.725 54.485H289.258C293.017 54.485 295.453 54.359 298.267 53.834L298.456 55.304C295.558 55.85 293.08 55.955 289.258 55.955H287.725V54.485ZM287.725 43.46H296.692V44.909H289.447V55.031H287.725V43.46ZM308.304 52.784H309.942V55.157H313.26V52.784H314.877V60.386H308.304V52.784ZM309.942 56.459V59.021H313.26V56.459H309.942ZM318.552 52.679H319.896V54.254C319.896 56.837 318.594 59.441 315.969 60.554L315.087 59.231C317.376 58.265 318.552 56.186 318.552 54.254V52.679ZM318.909 52.679H320.253V54.254C320.253 56.291 321.429 58.349 323.718 59.231L322.836 60.554C320.19 59.462 318.909 56.942 318.909 54.254V52.679ZM315.675 46.106H320.778V47.555H315.675V46.106ZM311.307 42.494C314.142 42.494 316.2 44.258 316.2 46.862C316.2 49.445 314.142 51.23 311.307 51.23C308.472 51.23 306.414 49.445 306.414 46.862C306.414 44.258 308.472 42.494 311.307 42.494ZM311.307 43.943C309.438 43.943 308.094 45.14 308.094 46.862C308.094 48.563 309.438 49.781 311.307 49.781C313.176 49.781 314.52 48.563 314.52 46.862C314.52 45.14 313.176 43.943 311.307 43.943ZM320.001 41.654H321.744V51.713H320.001V41.654ZM339.886 49.214H343.393V50.684H339.886V49.214ZM338.605 41.633H340.369V60.638H338.605V41.633ZM326.509 43.502H328.252V55.262H326.509V43.502ZM326.509 54.359H328.021C330.835 54.359 333.712 54.17 336.841 53.519L337.051 54.968C333.817 55.64 330.898 55.829 328.021 55.829H326.509V54.359ZM348.295 54.6076V54.4659C348.305 53.5412 348.397 52.8054 348.571 52.2585C348.75 51.7116 349.003 51.2692 349.332 50.9311C349.66 50.593 350.055 50.2848 350.517 50.0064C350.816 49.8175 351.084 49.6062 351.323 49.3725C351.561 49.1388 351.75 48.8704 351.889 48.5671C352.029 48.2638 352.098 47.9283 352.098 47.5604C352.098 47.1179 351.994 46.7351 351.785 46.4119C351.576 46.0888 351.298 45.8402 350.95 45.6662C350.607 45.4872 350.224 45.3977 349.801 45.3977C349.419 45.3977 349.053 45.4773 348.705 45.6364C348.357 45.7955 348.069 46.044 347.84 46.3821C347.611 46.7152 347.48 47.1452 347.445 47.6722H345.178C345.213 46.7773 345.439 46.0217 345.856 45.4052C346.274 44.7837 346.826 44.3139 347.512 43.9957C348.203 43.6776 348.966 43.5185 349.801 43.5185C350.716 43.5185 351.517 43.69 352.203 44.033C352.889 44.3711 353.421 44.8459 353.799 45.4574C354.181 46.0639 354.373 46.7724 354.373 47.5827C354.373 48.1396 354.286 48.6417 354.112 49.0891C353.938 49.5316 353.689 49.9268 353.366 50.2749C353.048 50.6229 352.665 50.9311 352.218 51.1996C351.795 51.4631 351.452 51.7365 351.188 52.0199C350.93 52.3033 350.741 52.6388 350.622 53.0266C350.502 53.4144 350.438 53.8942 350.428 54.4659V54.6076H348.295ZM349.421 59.1417C349.013 59.1417 348.663 58.9975 348.37 58.7092C348.076 58.4158 347.93 58.0629 347.93 57.6502C347.93 57.2425 348.076 56.8945 348.37 56.6062C348.663 56.3129 349.013 56.1662 349.421 56.1662C349.824 56.1662 350.172 56.3129 350.465 56.6062C350.763 56.8945 350.913 57.2425 350.913 57.6502C350.913 57.9237 350.843 58.1747 350.704 58.4034C350.57 58.6271 350.391 58.8061 350.167 58.9403C349.943 59.0746 349.695 59.1417 349.421 59.1417Z" fill="black"/>
</svg>
