<svg width="422" height="102" viewBox="0 0 422 102" fill="none" xmlns="http://www.w3.org/2000/svg">
<rect x="8" y="12" width="392" height="78" rx="16" fill="#4ECB71"/>
<path d="M47.162 49.214H50.669V50.684H47.162V49.214ZM45.881 41.633H47.645V60.638H45.881V41.633ZM33.785 43.502H35.528V55.262H33.785V43.502ZM33.785 54.359H35.297C38.111 54.359 40.988 54.17 44.117 53.519L44.327 54.968C41.093 55.64 38.174 55.829 35.297 55.829H33.785V54.359ZM65.6614 41.675H67.4044V55.913H65.6614V41.675ZM66.8584 47.891H70.2184V49.361H66.8584V47.891ZM52.7254 43.964H63.9394V45.371H52.7254V43.964ZM58.3324 46.421C61.0204 46.421 62.8684 47.828 62.8684 49.97C62.8684 52.091 61.0204 53.498 58.3324 53.498C55.6234 53.498 53.7754 52.091 53.7754 49.97C53.7754 47.828 55.6234 46.421 58.3324 46.421ZM58.3324 47.786C56.6104 47.786 55.4344 48.647 55.4344 49.97C55.4344 51.272 56.6104 52.133 58.3324 52.133C60.0334 52.133 61.2094 51.272 61.2094 49.97C61.2094 48.647 60.0334 47.786 58.3324 47.786ZM57.4504 41.654H59.1934V44.699H57.4504V41.654ZM55.5814 58.79H68.2654V60.218H55.5814V58.79ZM55.5814 54.779H57.3244V59.399H55.5814V54.779ZM80.1917 48.836H83.7617V50.285H80.1917V48.836ZM73.0097 54.653H74.2277C77.1467 54.653 78.8897 54.59 80.9897 54.17L81.1577 55.598C78.9947 56.018 77.1887 56.081 74.2277 56.081H73.0097V54.653ZM73.0097 43.943H80.0447V45.35H74.6687V55.136H73.0097V43.943ZM74.1647 49.067H79.1837V50.453H74.1647V49.067ZM86.7437 41.654H88.4237V60.638H86.7437V41.654ZM82.9217 42.095H84.5807V59.672H82.9217V42.095ZM98.5997 42.935H107.315V51.083H98.5997V42.935ZM105.614 44.342H100.301V49.676H105.614V44.342ZM110.801 41.654H112.544V52.469H110.801V41.654ZM112.061 46.211H115.358V47.66H112.061V46.211ZM105.74 54.254H107.231V54.758C107.231 57.74 104.102 59.945 100.364 60.575L99.6917 59.231C102.968 58.727 105.74 56.879 105.74 54.758V54.254ZM106.076 54.254H107.567V54.758C107.567 56.837 110.381 58.727 113.594 59.252L112.943 60.596C109.226 59.966 106.076 57.677 106.076 54.758V54.254ZM100.427 53.603H112.88V54.989H100.427V53.603ZM119.766 47.345H132.66V48.773H119.766V47.345ZM117.435 51.314H134.655V52.742H117.435V51.314ZM119.766 42.347H121.488V48.059H119.766V42.347ZM119.64 58.748H132.765V60.176H119.64V58.748ZM119.64 54.632H121.362V59.126H119.64V54.632ZM152.433 48.08H157.725V49.508H152.433V48.08ZM147.855 43.292H149.283V46.673C149.283 50.936 147.036 55.01 144.033 56.627L142.92 55.241C145.713 53.855 147.855 50.201 147.855 46.673V43.292ZM148.191 43.292H149.598V46.673C149.598 50.138 151.74 53.582 154.491 54.884L153.462 56.291C150.396 54.737 148.191 50.831 148.191 46.673V43.292ZM156.864 41.633H158.586V60.659H156.864V41.633ZM176.371 41.633H178.114V60.659H176.371V41.633ZM163.666 43.25H165.388V48.269H170.869V43.25H172.612V56.081H163.666V43.25ZM165.388 49.655V54.653H170.869V49.655H165.388ZM189.831 42.956H191.343V44.405C191.343 48.542 187.5 51.755 183.699 52.616L182.922 51.167C186.261 50.537 189.831 47.639 189.831 44.405V42.956ZM190.146 42.956H191.658V44.405C191.658 47.66 195.249 50.537 198.567 51.167L197.79 52.616C194.01 51.755 190.146 48.563 190.146 44.405V42.956ZM182.229 56.648H199.428V58.076H182.229V56.648ZM201.841 50.474H219.061V51.797H201.841V50.474ZM203.878 53.33H216.898V57.383H205.663V59.609H203.941V56.186H215.197V54.569H203.878V53.33ZM203.941 59.147H217.507V60.407H203.941V59.147ZM204.025 42.2H216.835V46.148H205.789V48.206H204.067V44.972H215.134V43.439H204.025V42.2ZM204.067 47.786H217.192V49.046H204.067V47.786ZM233.059 50.474H234.781V54.044H233.059V50.474ZM230.329 53.498H232.072V55.535H241.081V53.498H242.803V60.386H230.329V53.498ZM232.072 56.9V58.979H241.081V56.9H232.072ZM241.06 41.654H242.803V52.553H241.06V41.654ZM227.62 51.398L227.389 49.97C230.938 49.97 235.663 49.949 239.8 49.403L239.926 50.663C235.684 51.377 231.085 51.398 227.62 51.398ZM232.828 42.116H234.235V43.061C234.235 45.812 232.156 47.975 228.985 48.773L228.208 47.45C230.98 46.778 232.828 45.056 232.828 43.061V42.116ZM233.206 42.116H234.634V43.061C234.634 44.993 236.503 46.589 239.212 47.156L238.477 48.5C235.327 47.765 233.206 45.728 233.206 43.061V42.116ZM261.449 41.654H263.129V60.638H261.449V41.654ZM253.217 49.403H258.005V50.81H253.217V49.403ZM257.501 42.137H259.139V59.672H257.501V42.137ZM253.448 44.048H255.128C255.128 49.025 253.133 53.498 248.009 56.543L246.98 55.304C251.453 52.616 253.448 48.836 253.448 44.363V44.048ZM247.82 44.048H254.099V45.476H247.82V44.048ZM273.284 43.355H281.999V52.154H273.284V43.355ZM280.298 44.762H274.985V50.747H280.298V44.762ZM285.485 41.633H287.228V55.556H285.485V41.633ZM286.682 47.429H290.042V48.878H286.682V47.429ZM275.405 58.79H288.089V60.218H275.405V58.79ZM275.405 54.233H277.148V59.399H275.405V54.233ZM292.141 49.571H309.298V50.999H292.141V49.571ZM294.409 46.631H307.261V48.038H294.409V46.631ZM294.409 42.263H307.051V43.691H296.131V47.765H294.409V42.263ZM294.199 52.637H307.093V57.11H295.963V59.504H294.241V55.808H305.371V54.002H294.199V52.637ZM294.241 59.042H307.66V60.428H294.241V59.042ZM313.58 43.544H325.802V44.993H313.58V43.544ZM311.774 56.543H328.931V57.992H311.774V56.543ZM318.431 49.76H320.174V57.257H318.431V49.76ZM325.151 43.544H326.873V45.434C326.873 47.786 326.873 50.39 326.18 54.233L324.437 54.002C325.151 50.369 325.151 47.702 325.151 45.434V43.544ZM351.077 41.675H352.841V52.196H351.077V41.675ZM342.215 42.347H343.664V44.195C343.664 47.702 341.48 50.663 338.267 51.818L337.385 50.453C340.241 49.445 342.215 46.925 342.215 44.195V42.347ZM342.53 42.347H343.958V44.195C343.958 46.841 345.953 49.172 348.767 50.096L347.906 51.482C344.714 50.39 342.53 47.597 342.53 44.195V42.347ZM340.283 53.33H352.946V54.758H340.283V53.33ZM340.094 58.979H353.156V60.386H340.094V58.979ZM342.887 53.939H344.588V59.798H342.887V53.939ZM348.641 53.939H350.363V59.798H348.641V53.939ZM361.974 43.103C364.725 43.103 366.699 45.686 366.699 49.718C366.699 53.771 364.725 56.354 361.974 56.354C359.202 56.354 357.249 53.771 357.249 49.718C357.249 45.686 359.202 43.103 361.974 43.103ZM361.974 44.678C360.147 44.678 358.908 46.652 358.908 49.718C358.908 52.805 360.147 54.821 361.974 54.821C363.801 54.821 365.04 52.805 365.04 49.718C365.04 46.652 363.801 44.678 361.974 44.678ZM370.815 41.633H372.537V60.659H370.815V41.633ZM366.132 48.878H371.571V50.306H366.132V48.878Z" fill="black"/>
<path d="M412.481 49.8682L402.015 55.8483C400.769 56.5605 400 57.8859 400 59.3213V61H393V37H400V38.6787C400 40.1141 400.769 41.4395 402.015 42.1517L412.481 48.1318C413.152 48.5157 413.152 49.4843 412.481 49.8682Z" fill="#4ECB71"/>
</svg>
