<svg width="470" height="102" viewBox="0 0 470 102" fill="none" xmlns="http://www.w3.org/2000/svg">
<rect x="8" y="12" width="440" height="78" rx="16" fill="#4ECB71"/>
<path d="M47.162 49.214H50.669V50.684H47.162V49.214ZM45.881 41.633H47.645V60.638H45.881V41.633ZM33.785 43.502H35.528V55.262H33.785V43.502ZM33.785 54.359H35.297C38.111 54.359 40.988 54.17 44.117 53.519L44.327 54.968C41.093 55.64 38.174 55.829 35.297 55.829H33.785V54.359ZM53.4604 43.355H62.1754V52.154H53.4604V43.355ZM60.4744 44.762H55.1614V50.747H60.4744V44.762ZM65.6614 41.633H67.4044V55.556H65.6614V41.633ZM66.8584 47.429H70.2184V48.878H66.8584V47.429ZM55.5814 58.79H68.2654V60.218H55.5814V58.79ZM55.5814 54.233H57.3244V59.399H55.5814V54.233ZM82.2423 41.885H83.5653V42.914C83.5653 45.035 82.2003 47.408 79.5123 48.395L78.6723 47.114C80.9613 46.295 82.2423 44.384 82.2423 42.914V41.885ZM82.6413 41.885H83.9643V42.914C83.9643 44.363 85.1823 46.358 87.4083 47.24L86.7363 48.605C83.9433 47.597 82.6413 44.951 82.6413 42.914V41.885ZM89.5293 41.885H90.8523V42.914C90.8523 45.056 89.5503 47.618 86.7363 48.605L86.0853 47.24C88.3113 46.379 89.5293 44.447 89.5293 42.914V41.885ZM89.9283 41.885H91.2513V42.914C91.2513 44.573 92.5113 46.358 94.8213 47.114L94.0023 48.395C91.2933 47.492 89.9283 45.203 89.9283 42.914V41.885ZM78.1683 49.697H95.3253V51.104H78.1683V49.697ZM80.2473 52.658H93.1413V57.089H82.0113V59.504H80.2893V55.808H91.4193V54.002H80.2473V52.658ZM80.2893 59.063H93.7083V60.428H80.2893V59.063ZM111.36 42.326H112.893V43.376C112.893 47.009 109.197 49.613 105.249 50.285L104.556 48.878C108.021 48.353 111.36 46.085 111.36 43.376V42.326ZM111.675 42.326H113.187V43.376C113.187 46.022 116.568 48.353 119.991 48.878L119.298 50.285C115.392 49.613 111.675 46.967 111.675 43.376V42.326ZM111.36 53.414H113.082V60.638H111.36V53.414ZM103.695 52.343H120.852V53.792H103.695V52.343ZM133.926 53.33H135.27V54.359C135.27 56.837 133.716 59.336 130.986 60.386L130.104 59.084C132.498 58.223 133.926 56.186 133.926 54.359V53.33ZM134.304 53.33H135.606V54.359C135.606 56.27 136.74 58.307 139.008 59.231L138.273 60.554C135.543 59.483 134.304 56.879 134.304 54.359V53.33ZM140.94 53.33H142.242V54.359C142.242 56.585 140.982 59.399 138.273 60.554L137.538 59.231C139.785 58.202 140.94 55.997 140.94 54.359V53.33ZM141.297 53.33H142.641V54.359C142.641 56.312 144.048 58.265 146.463 59.084L145.581 60.386C142.809 59.378 141.297 56.984 141.297 54.359V53.33ZM142.998 41.675H144.762V52.511H142.998V41.675ZM134.577 42.767C137.454 42.767 139.512 44.573 139.512 47.198C139.512 49.823 137.454 51.608 134.577 51.608C131.7 51.608 129.621 49.823 129.621 47.198C129.621 44.573 131.7 42.767 134.577 42.767ZM134.577 44.216C132.687 44.216 131.322 45.434 131.322 47.198C131.322 48.962 132.687 50.159 134.577 50.159C136.467 50.159 137.832 48.962 137.832 47.198C137.832 45.434 136.467 44.216 134.577 44.216ZM163.283 41.654H164.963V60.638H163.283V41.654ZM155.051 49.403H159.839V50.81H155.051V49.403ZM159.335 42.137H160.973V59.672H159.335V42.137ZM155.282 44.048H156.962C156.962 49.025 154.967 53.498 149.843 56.543L148.814 55.304C153.287 52.616 155.282 48.836 155.282 44.363V44.048ZM149.654 44.048H155.933V45.476H149.654V44.048ZM188.747 41.654H190.427V60.638H188.747V41.654ZM185.555 49.382H189.209V50.81H185.555V49.382ZM184.442 42.074H186.08V59.672H184.442V42.074ZM175.244 43.943H176.987V54.905H175.244V43.943ZM175.244 54.212H176.462C178.415 54.212 180.599 54.086 183.077 53.603L183.266 55.115C180.683 55.619 178.499 55.724 176.462 55.724H175.244V54.212ZM200.624 42.935H209.339V51.083H200.624V42.935ZM207.638 44.342H202.325V49.676H207.638V44.342ZM212.825 41.654H214.568V52.469H212.825V41.654ZM214.085 46.211H217.382V47.66H214.085V46.211ZM207.764 54.254H209.255V54.758C209.255 57.74 206.126 59.945 202.388 60.575L201.716 59.231C204.992 58.727 207.764 56.879 207.764 54.758V54.254ZM208.1 54.254H209.591V54.758C209.591 56.837 212.405 58.727 215.618 59.252L214.967 60.596C211.25 59.966 208.1 57.677 208.1 54.758V54.254ZM202.451 53.603H214.904V54.989H202.451V53.603ZM227.187 52.112H228.909V55.115H227.187V52.112ZM219.459 51.02H236.616V52.448H219.459V51.02ZM227.187 41.528H228.909V44.195H227.187V41.528ZM227.103 44.342H228.636V44.636C228.636 47.723 225.15 49.508 220.992 49.928L220.467 48.584C224.142 48.29 227.103 46.799 227.103 44.636V44.342ZM227.46 44.342H228.993V44.636C228.993 46.799 231.933 48.29 235.629 48.584L235.104 49.928C230.946 49.508 227.46 47.723 227.46 44.636V44.342ZM221.223 43.439H234.873V44.825H221.223V43.439ZM221.559 54.506H234.516V60.386H221.559V54.506ZM232.815 55.892H223.281V58.979H232.815V55.892ZM249.48 42.683C251.979 42.683 253.785 44.447 253.785 46.988C253.785 49.55 251.979 51.293 249.48 51.293C246.939 51.293 245.154 49.55 245.154 46.988C245.154 44.447 246.939 42.683 249.48 42.683ZM249.48 44.111C247.905 44.111 246.75 45.308 246.75 46.988C246.75 48.668 247.905 49.865 249.48 49.865C251.034 49.865 252.21 48.668 252.21 46.988C252.21 45.308 251.034 44.111 249.48 44.111ZM259.308 41.675H260.967V51.986H259.308V41.675ZM256.326 46.022H259.896V47.45H256.326V46.022ZM255.234 42.032H256.893V51.86H255.234V42.032ZM248.535 52.868H250.257V55.115H259.287V52.868H260.967V60.386H248.535V52.868ZM250.257 56.501V58.958H259.287V56.501H250.257ZM275.217 53.33H276.561V54.359C276.561 56.837 275.007 59.336 272.277 60.386L271.395 59.084C273.789 58.223 275.217 56.186 275.217 54.359V53.33ZM275.595 53.33H276.897V54.359C276.897 56.27 278.031 58.307 280.299 59.231L279.564 60.554C276.834 59.483 275.595 56.879 275.595 54.359V53.33ZM282.231 53.33H283.533V54.359C283.533 56.585 282.273 59.399 279.564 60.554L278.829 59.231C281.076 58.202 282.231 55.997 282.231 54.359V53.33ZM282.588 53.33H283.932V54.359C283.932 56.312 285.339 58.265 287.754 59.084L286.872 60.386C284.1 59.378 282.588 56.984 282.588 54.359V53.33ZM284.289 41.675H286.053V52.511H284.289V41.675ZM275.868 42.767C278.745 42.767 280.803 44.573 280.803 47.198C280.803 49.823 278.745 51.608 275.868 51.608C272.991 51.608 270.912 49.823 270.912 47.198C270.912 44.573 272.991 42.767 275.868 42.767ZM275.868 44.216C273.978 44.216 272.613 45.434 272.613 47.198C272.613 48.962 273.978 50.159 275.868 50.159C277.758 50.159 279.123 48.962 279.123 47.198C279.123 45.434 277.758 44.216 275.868 44.216ZM298.693 42.851C302.641 42.851 305.581 44.951 305.581 48.101C305.581 51.272 302.641 53.351 298.693 53.351C294.745 53.351 291.784 51.272 291.784 48.101C291.784 44.951 294.745 42.851 298.693 42.851ZM298.693 44.279C295.69 44.279 293.464 45.812 293.464 48.101C293.464 50.369 295.69 51.923 298.693 51.923C301.696 51.923 303.922 50.369 303.922 48.101C303.922 45.812 301.696 44.279 298.693 44.279ZM290.125 56.669H307.324V58.139H290.125V56.669ZM318.852 44.993H324.165V46.421H318.852V44.993ZM318.852 49.046H324.207V50.495H318.852V49.046ZM310.62 43.292H319.293V52.196H310.62V43.292ZM317.571 44.699H312.321V50.789H317.571V44.699ZM323.619 41.675H325.362V55.535H323.619V41.675ZM313.161 58.79H325.824V60.218H313.161V58.79ZM313.161 54.275H314.904V59.441H313.161V54.275ZM342.951 47.282H344.673V50.18H342.951V47.282ZM342.699 42.809H344.232V43.397C344.232 46.253 340.704 48.08 336.714 48.458L336.147 47.135C339.57 46.862 342.699 45.392 342.699 43.397V42.809ZM343.455 42.809H344.967V43.397C344.967 45.371 348.096 46.862 351.519 47.135L350.952 48.458C346.983 48.08 343.455 46.253 343.455 43.397V42.809ZM336.819 42.242H350.868V43.607H336.819V42.242ZM336.84 53.435H350.826V54.821H336.84V53.435ZM335.244 49.529H352.464V50.936H335.244V49.529ZM343.833 55.745C347.487 55.745 349.524 56.606 349.524 58.244C349.524 59.903 347.487 60.743 343.833 60.743C340.179 60.743 338.121 59.903 338.121 58.244C338.121 56.606 340.179 55.745 343.833 55.745ZM343.833 56.942C341.313 56.942 339.906 57.383 339.906 58.244C339.906 59.105 341.313 59.546 343.833 59.546C346.332 59.546 347.76 59.105 347.76 58.244C347.76 57.383 346.332 56.942 343.833 56.942ZM342.972 51.692H344.694V54.317H342.972V51.692ZM361.471 43.04H363.214C363.214 47.576 360.694 50.978 355.948 52.994L355.066 51.713C359.245 49.991 361.471 47.198 361.471 43.607V43.04ZM355.885 43.04H362.143V44.489H355.885V43.04ZM369.22 41.654H370.879V52.616H369.22V41.654ZM361.261 47.051H365.839V48.458H361.261V47.051ZM365.461 42.053H367.099V52.322H365.461V42.053ZM359.812 53.267H361.156V54.506C361.156 57.005 359.581 59.525 356.851 60.575L355.99 59.273C358.363 58.412 359.812 56.354 359.812 54.506V53.267ZM360.19 53.267H361.492V54.506C361.492 56.438 362.605 58.475 364.894 59.441L364.159 60.743C361.408 59.651 360.19 57.047 360.19 54.506V53.267ZM366.784 53.267H368.086V54.506C368.086 56.753 366.847 59.588 364.159 60.743L363.382 59.441C365.671 58.391 366.784 56.144 366.784 54.506V53.267ZM367.141 53.267H368.485V54.506C368.485 56.501 369.913 58.475 372.307 59.273L371.446 60.575C368.695 59.567 367.141 57.152 367.141 54.506V53.267ZM379.592 43.103C382.343 43.103 384.317 45.686 384.317 49.718C384.317 53.771 382.343 56.354 379.592 56.354C376.82 56.354 374.867 53.771 374.867 49.718C374.867 45.686 376.82 43.103 379.592 43.103ZM379.592 44.678C377.765 44.678 376.526 46.652 376.526 49.718C376.526 52.805 377.765 54.821 379.592 54.821C381.419 54.821 382.658 52.805 382.658 49.718C382.658 46.652 381.419 44.678 379.592 44.678ZM388.433 41.633H390.155V60.659H388.433V41.633ZM383.75 48.878H389.189V50.306H383.75V48.878Z" fill="black"/>
<path d="M460.481 49.8682L450.015 55.8483C448.769 56.5605 448 57.8859 448 59.3213V61H441V37H448V38.6787C448 40.1141 448.769 41.4395 450.015 42.1517L460.481 48.1318C461.152 48.5157 461.152 49.4843 460.481 49.8682Z" fill="#4ECB71"/>
</svg>
