<svg width="441" height="102" viewBox="0 0 441 102" fill="none" xmlns="http://www.w3.org/2000/svg">
<rect x="8" y="12" width="411" height="78" rx="16" fill="#4ECB71"/>
<path d="M38.3239 59.2312C37.25 59.2312 36.3129 58.9851 35.5124 58.4929C34.712 58.0007 34.0906 57.3121 33.6481 56.4272C33.2056 55.5423 32.9844 54.5082 32.9844 53.3249C32.9844 52.1367 33.2056 51.0977 33.6481 50.2077C34.0906 49.3178 34.712 48.6268 35.5124 48.1346C36.3129 47.6424 37.25 47.3963 38.3239 47.3963C39.3977 47.3963 40.3349 47.6424 41.1353 48.1346C41.9357 48.6268 42.5572 49.3178 42.9996 50.2077C43.4421 51.0977 43.6634 52.1367 43.6634 53.3249C43.6634 54.5082 43.4421 55.5423 42.9996 56.4272C42.5572 57.3121 41.9357 58.0007 41.1353 58.4929C40.3349 58.9851 39.3977 59.2312 38.3239 59.2312ZM38.3313 57.3594C39.0273 57.3594 39.604 57.1754 40.0614 56.8075C40.5188 56.4396 40.8569 55.9499 41.0756 55.3384C41.2994 54.7269 41.4112 54.0533 41.4112 53.3175C41.4112 52.5866 41.2994 51.9155 41.0756 51.304C40.8569 50.6875 40.5188 50.1928 40.0614 49.82C39.604 49.4471 39.0273 49.2607 38.3313 49.2607C37.6303 49.2607 37.0487 49.4471 36.5863 49.82C36.1289 50.1928 35.7884 50.6875 35.5646 51.304C35.3459 51.9155 35.2365 52.5866 35.2365 53.3175C35.2365 54.0533 35.3459 54.7269 35.5646 55.3384C35.7884 55.9499 36.1289 56.4396 36.5863 56.8075C37.0487 57.1754 37.6303 57.3594 38.3313 57.3594ZM46.4673 63.2955V47.5455H48.6448V49.4023H48.8312C48.9605 49.1637 49.1469 48.8878 49.3906 48.5746C49.6342 48.2614 49.9722 47.9879 50.4048 47.7543C50.8373 47.5156 51.409 47.3963 52.12 47.3963C53.0447 47.3963 53.87 47.63 54.5958 48.0973C55.3217 48.5646 55.8909 49.2383 56.3035 50.1183C56.7212 50.9982 56.93 52.0572 56.93 53.2951C56.93 54.533 56.7236 55.5945 56.311 56.4794C55.8984 57.3594 55.3316 58.038 54.6107 58.5153C53.8898 58.9876 53.067 59.2237 52.1423 59.2237C51.4463 59.2237 50.8771 59.1069 50.4346 58.8732C49.9971 58.6396 49.654 58.3661 49.4055 58.0529C49.1569 57.7397 48.9655 57.4613 48.8312 57.2177H48.697V63.2955H46.4673ZM48.6523 53.2727C48.6523 54.0781 48.7691 54.7841 49.0028 55.3906C49.2364 55.9972 49.5745 56.4719 50.017 56.815C50.4594 57.1531 51.0013 57.3221 51.6427 57.3221C52.3089 57.3221 52.8657 57.1456 53.3131 56.7926C53.7606 56.4347 54.0986 55.9499 54.3273 55.3384C54.561 54.7269 54.6778 54.0384 54.6778 53.2727C54.6778 52.517 54.5635 51.8384 54.3348 51.2369C54.1111 50.6353 53.773 50.1605 53.3206 49.8125C52.8731 49.4645 52.3138 49.2905 51.6427 49.2905C50.9964 49.2905 50.4495 49.457 50.0021 49.7901C49.5596 50.1232 49.224 50.5881 48.9953 51.1847C48.7666 51.7812 48.6523 52.4773 48.6523 53.2727ZM64.68 59.2312C63.5514 59.2312 62.5795 58.9901 61.7641 58.5078C60.9538 58.0206 60.3274 57.337 59.8849 56.457C59.4474 55.5721 59.2286 54.5355 59.2286 53.3473C59.2286 52.174 59.4474 51.1399 59.8849 50.245C60.3274 49.3501 60.9438 48.6516 61.7343 48.1495C62.5298 47.6474 63.4595 47.3963 64.5234 47.3963C65.1697 47.3963 65.7961 47.5032 66.4026 47.717C67.0092 47.9308 67.5536 48.2663 68.0358 48.7237C68.518 49.1811 68.8984 49.7752 69.1768 50.506C69.4552 51.2319 69.5944 52.1143 69.5944 53.1534V53.9439H60.4889V52.2734H67.4094C67.4094 51.6868 67.2901 51.1673 67.0514 50.7148C66.8128 50.2575 66.4772 49.897 66.0447 49.6335C65.6171 49.37 65.115 49.2383 64.5383 49.2383C63.9119 49.2383 63.365 49.3924 62.8977 49.7006C62.4353 50.0039 62.0774 50.4016 61.8238 50.8938C61.5752 51.381 61.4509 51.9105 61.4509 52.4822V53.7873C61.4509 54.5529 61.5852 55.2042 61.8536 55.7411C62.1271 56.2781 62.5074 56.6882 62.9946 56.9716C63.4818 57.25 64.0511 57.3892 64.7024 57.3892C65.1249 57.3892 65.5102 57.3295 65.8582 57.2102C66.2063 57.0859 66.507 56.902 66.7606 56.6584C67.0141 56.4148 67.208 56.114 67.3423 55.756L69.4527 56.1364C69.2837 56.7578 68.9804 57.3022 68.5429 57.7695C68.1104 58.2319 67.566 58.5923 66.9097 58.8509C66.2585 59.1044 65.5152 59.2312 64.68 59.2312ZM74.6131 52.1989V59H72.3834V47.5455H74.5237V49.4098H74.6653C74.9288 48.8033 75.3415 48.3161 75.9033 47.9482C76.47 47.5803 77.1835 47.3963 78.0435 47.3963C78.8241 47.3963 79.5077 47.5604 80.0943 47.8885C80.681 48.2116 81.1359 48.6939 81.459 49.3352C81.7822 49.9766 81.9438 50.7695 81.9438 51.7141V59H79.714V51.9826C79.714 51.1523 79.4977 50.5036 79.0652 50.0362C78.6327 49.5639 78.0386 49.3278 77.2829 49.3278C76.7658 49.3278 76.306 49.4396 75.9033 49.6634C75.5055 49.8871 75.1899 50.2152 74.9562 50.6477C74.7275 51.0753 74.6131 51.5923 74.6131 52.1989ZM92.5909 59H90.1449L95.641 43.7273H98.3033L103.799 59H101.353L97.0355 46.5014H96.9162L92.5909 59ZM93.001 53.0192H100.936V54.9581H93.001V53.0192ZM106.32 59V43.7273H111.764C112.952 43.7273 113.936 43.9435 114.717 44.3761C115.497 44.8086 116.082 45.4002 116.469 46.1509C116.857 46.8967 117.051 47.7369 117.051 48.6715C117.051 49.6112 116.855 50.4563 116.462 51.207C116.074 51.9528 115.487 52.5444 114.702 52.9819C113.921 53.4144 112.94 53.6307 111.756 53.6307H108.013V51.6768H111.547C112.298 51.6768 112.907 51.5476 113.375 51.2891C113.842 51.0256 114.185 50.6676 114.404 50.2152C114.622 49.7628 114.732 49.2482 114.732 48.6715C114.732 48.0948 114.622 47.5827 114.404 47.1353C114.185 46.6879 113.839 46.3374 113.367 46.0838C112.9 45.8303 112.283 45.7035 111.518 45.7035H108.624V59H106.32ZM122.372 43.7273V59H120.067V43.7273H122.372ZM136.024 59.2237C135.1 59.2237 134.274 58.9876 133.548 58.5153C132.828 58.038 132.261 57.3594 131.848 56.4794C131.44 55.5945 131.237 54.533 131.237 53.2951C131.237 52.0572 131.443 50.9982 131.856 50.1183C132.273 49.2383 132.845 48.5646 133.571 48.0973C134.297 47.63 135.119 47.3963 136.039 47.3963C136.75 47.3963 137.322 47.5156 137.754 47.7543C138.192 47.9879 138.53 48.2614 138.769 48.5746C139.012 48.8878 139.201 49.1637 139.335 49.4023H139.47V43.7273H141.699V59H139.522V57.2177H139.335C139.201 57.4613 139.007 57.7397 138.754 58.0529C138.505 58.3661 138.162 58.6396 137.725 58.8732C137.287 59.1069 136.72 59.2237 136.024 59.2237ZM136.516 57.3221C137.158 57.3221 137.7 57.1531 138.142 56.815C138.59 56.4719 138.928 55.9972 139.156 55.3906C139.39 54.7841 139.507 54.0781 139.507 53.2727C139.507 52.4773 139.393 51.7812 139.164 51.1847C138.935 50.5881 138.6 50.1232 138.157 49.7901C137.715 49.457 137.168 49.2905 136.516 49.2905C135.845 49.2905 135.286 49.4645 134.839 49.8125C134.391 50.1605 134.053 50.6353 133.824 51.2369C133.601 51.8384 133.489 52.517 133.489 53.2727C133.489 54.0384 133.603 54.7269 133.832 55.3384C134.06 55.9499 134.399 56.4347 134.846 56.7926C135.298 57.1456 135.855 57.3221 136.516 57.3221ZM150.022 59.2312C148.948 59.2312 148.011 58.9851 147.21 58.4929C146.41 58.0007 145.788 57.3121 145.346 56.4272C144.903 55.5423 144.682 54.5082 144.682 53.3249C144.682 52.1367 144.903 51.0977 145.346 50.2077C145.788 49.3178 146.41 48.6268 147.21 48.1346C148.011 47.6424 148.948 47.3963 150.022 47.3963C151.096 47.3963 152.033 47.6424 152.833 48.1346C153.634 48.6268 154.255 49.3178 154.697 50.2077C155.14 51.0977 155.361 52.1367 155.361 53.3249C155.361 54.5082 155.14 55.5423 154.697 56.4272C154.255 57.3121 153.634 58.0007 152.833 58.4929C152.033 58.9851 151.096 59.2312 150.022 59.2312ZM150.029 57.3594C150.725 57.3594 151.302 57.1754 151.759 56.8075C152.217 56.4396 152.555 55.9499 152.773 55.3384C152.997 54.7269 153.109 54.0533 153.109 53.3175C153.109 52.5866 152.997 51.9155 152.773 51.304C152.555 50.6875 152.217 50.1928 151.759 49.82C151.302 49.4471 150.725 49.2607 150.029 49.2607C149.328 49.2607 148.747 49.4471 148.284 49.82C147.827 50.1928 147.486 50.6875 147.262 51.304C147.044 51.9155 146.934 52.5866 146.934 53.3175C146.934 54.0533 147.044 54.7269 147.262 55.3384C147.486 55.9499 147.827 56.4396 148.284 56.8075C148.747 57.1754 149.328 57.3594 150.029 57.3594ZM162.99 59.2312C161.881 59.2312 160.927 58.9801 160.126 58.478C159.331 57.9709 158.719 57.2724 158.292 56.3825C157.864 55.4925 157.651 54.4734 157.651 53.3249C157.651 52.1616 157.869 51.1349 158.307 50.245C158.744 49.3501 159.361 48.6516 160.156 48.1495C160.952 47.6474 161.889 47.3963 162.968 47.3963C163.838 47.3963 164.613 47.5579 165.294 47.881C165.975 48.1992 166.525 48.6467 166.942 49.2234C167.365 49.8001 167.616 50.4737 167.696 51.2443H165.526C165.406 50.7074 165.133 50.245 164.705 49.8572C164.283 49.4695 163.716 49.2756 163.005 49.2756C162.383 49.2756 161.839 49.4396 161.372 49.7678C160.909 50.0909 160.549 50.5533 160.29 51.1548C160.032 51.7514 159.903 52.4574 159.903 53.2727C159.903 54.108 160.029 54.8288 160.283 55.4354C160.537 56.0419 160.895 56.5117 161.357 56.8448C161.824 57.1779 162.374 57.3445 163.005 57.3445C163.428 57.3445 163.81 57.2674 164.153 57.1133C164.501 56.9542 164.792 56.728 165.026 56.4347C165.265 56.1413 165.431 55.7884 165.526 55.3757H167.696C167.616 56.1165 167.375 56.7777 166.972 57.3594C166.57 57.9411 166.03 58.3984 165.354 58.7315C164.683 59.0646 163.895 59.2312 162.99 59.2312ZM178.979 50.342L176.958 50.6999C176.873 50.4414 176.739 50.1953 176.555 49.9616C176.376 49.728 176.132 49.5366 175.824 49.3874C175.516 49.2383 175.131 49.1637 174.668 49.1637C174.037 49.1637 173.51 49.3054 173.087 49.5888C172.665 49.8672 172.453 50.2276 172.453 50.6701C172.453 51.0529 172.595 51.3612 172.878 51.5948C173.162 51.8285 173.619 52.0199 174.251 52.169L176.07 52.5866C177.124 52.8303 177.91 53.2056 178.427 53.7127C178.944 54.2198 179.202 54.8786 179.202 55.6889C179.202 56.375 179.003 56.9865 178.606 57.5234C178.213 58.0554 177.664 58.473 176.958 58.7763C176.257 59.0795 175.444 59.2312 174.519 59.2312C173.236 59.2312 172.19 58.9577 171.38 58.4109C170.569 57.859 170.072 57.076 169.888 56.0618L172.043 55.7337C172.177 56.2955 172.453 56.7205 172.871 57.0089C173.289 57.2923 173.833 57.4339 174.504 57.4339C175.235 57.4339 175.819 57.2823 176.257 56.979C176.694 56.6708 176.913 56.2955 176.913 55.853C176.913 55.495 176.779 55.1942 176.51 54.9506C176.247 54.707 175.842 54.5231 175.295 54.3988L173.356 53.9737C172.287 53.7301 171.496 53.3423 170.984 52.8104C170.477 52.2784 170.224 51.6048 170.224 50.7894C170.224 50.1133 170.413 49.5217 170.79 49.0146C171.168 48.5075 171.69 48.1122 172.356 47.8288C173.023 47.5405 173.786 47.3963 174.646 47.3963C175.884 47.3963 176.858 47.6648 177.569 48.2017C178.28 48.7337 178.75 49.4471 178.979 50.342ZM183.83 47.345H196.724V48.773H183.83V47.345ZM181.499 51.314H198.719V52.742H181.499V51.314ZM183.83 42.347H185.552V48.059H183.83V42.347ZM183.704 58.748H196.829V60.176H183.704V58.748ZM183.704 54.632H185.426V59.126H183.704V54.632ZM220.928 41.654H222.671V60.68H220.928V41.654ZM215.09 47.912H221.495V49.34H215.09V47.912ZM208.055 43.775H209.777V55.535H208.055V43.775ZM208.055 54.611H209.525C212.465 54.611 215.09 54.443 218.009 53.834L218.219 55.304C215.195 55.892 212.528 56.081 209.525 56.081H208.055V54.611ZM226.638 52.679H243.858V54.107H226.638V52.679ZM234.324 53.54H236.046V60.638H234.324V53.54ZM228.822 42.704H241.632V50.117H228.822V42.704ZM239.931 44.111H230.544V48.71H239.931V44.111ZM257.226 43.103C259.977 43.103 261.951 45.686 261.951 49.718C261.951 53.771 259.977 56.354 257.226 56.354C254.454 56.354 252.501 53.771 252.501 49.718C252.501 45.686 254.454 43.103 257.226 43.103ZM257.226 44.678C255.399 44.678 254.16 46.652 254.16 49.718C254.16 52.805 255.399 54.821 257.226 54.821C259.053 54.821 260.292 52.805 260.292 49.718C260.292 46.652 259.053 44.678 257.226 44.678ZM266.067 41.633H267.789V60.659H266.067V41.633ZM261.384 48.878H266.823V50.306H261.384V48.878ZM285.659 41.675H287.402V52.28H285.659V41.675ZM281.984 44.111H286.058V45.539H281.984V44.111ZM272.576 50.264H273.941C277.637 50.264 279.506 50.222 281.816 49.823L281.984 51.251C279.611 51.629 277.679 51.692 273.941 51.692H272.576V50.264ZM272.534 42.494H280.724V47.66H274.298V51.461H272.576V46.316H279.002V43.922H272.534V42.494ZM281.984 47.807H286.058V49.214H281.984V47.807ZM275.117 53.057H276.839V55.241H285.68V53.057H287.402V60.386H275.117V53.057ZM276.839 56.627V58.958H285.68V56.627H276.839ZM305.88 41.654H307.56V60.638H305.88V41.654ZM297.648 49.403H302.436V50.81H297.648V49.403ZM301.932 42.137H303.57V59.672H301.932V42.137ZM297.879 44.048H299.559C299.559 49.025 297.564 53.498 292.44 56.543L291.411 55.304C295.884 52.616 297.879 48.836 297.879 44.363V44.048ZM292.251 44.048H298.53V45.476H292.251V44.048ZM318.429 49.823H328.152V51.251H318.429V49.823ZM322.314 50.957H324.078V55.325H322.314V50.957ZM318.429 43.439H328.047V44.867H320.172V50.327H318.429V43.439ZM330.651 41.633H332.394V60.659H330.651V41.633ZM317.274 56.543L317.022 55.094C320.739 55.073 325.401 55.031 329.412 54.548L329.559 55.85C325.401 56.48 320.865 56.564 317.274 56.543ZM341.632 43.103C344.383 43.103 346.357 45.686 346.357 49.718C346.357 53.771 344.383 56.354 341.632 56.354C338.86 56.354 336.907 53.771 336.907 49.718C336.907 45.686 338.86 43.103 341.632 43.103ZM341.632 44.678C339.805 44.678 338.566 46.652 338.566 49.718C338.566 52.805 339.805 54.821 341.632 54.821C343.459 54.821 344.698 52.805 344.698 49.718C344.698 46.652 343.459 44.678 341.632 44.678ZM350.473 41.633H352.195V60.659H350.473V41.633ZM345.79 48.878H351.229V50.306H345.79V48.878ZM360.93 53.33H362.274V54.359C362.274 56.837 360.72 59.336 357.99 60.386L357.108 59.084C359.502 58.223 360.93 56.186 360.93 54.359V53.33ZM361.308 53.33H362.61V54.359C362.61 56.27 363.744 58.307 366.012 59.231L365.277 60.554C362.547 59.483 361.308 56.879 361.308 54.359V53.33ZM367.944 53.33H369.246V54.359C369.246 56.585 367.986 59.399 365.277 60.554L364.542 59.231C366.789 58.202 367.944 55.997 367.944 54.359V53.33ZM368.301 53.33H369.645V54.359C369.645 56.312 371.052 58.265 373.467 59.084L372.585 60.386C369.813 59.378 368.301 56.984 368.301 54.359V53.33ZM370.002 41.675H371.766V52.511H370.002V41.675ZM361.581 42.767C364.458 42.767 366.516 44.573 366.516 47.198C366.516 49.823 364.458 51.608 361.581 51.608C358.704 51.608 356.625 49.823 356.625 47.198C356.625 44.573 358.704 42.767 361.581 42.767ZM361.581 44.216C359.691 44.216 358.326 45.434 358.326 47.198C358.326 48.962 359.691 50.159 361.581 50.159C363.471 50.159 364.836 48.962 364.836 47.198C364.836 45.434 363.471 44.216 361.581 44.216ZM380.899 43.103C383.65 43.103 385.624 45.686 385.624 49.718C385.624 53.771 383.65 56.354 380.899 56.354C378.127 56.354 376.174 53.771 376.174 49.718C376.174 45.686 378.127 43.103 380.899 43.103ZM380.899 44.678C379.072 44.678 377.833 46.652 377.833 49.718C377.833 52.805 379.072 54.821 380.899 54.821C382.726 54.821 383.965 52.805 383.965 49.718C383.965 46.652 382.726 44.678 380.899 44.678ZM389.74 41.633H391.462V60.659H389.74V41.633ZM385.057 48.878H390.496V50.306H385.057V48.878Z" fill="black"/>
<path d="M431.481 49.8682L421.015 55.8483C419.769 56.5605 419 57.8859 419 59.3213V61H412V37H419V38.6787C419 40.1141 419.769 41.4395 421.015 42.1517L431.481 48.1318C432.152 48.5157 432.152 49.4843 431.481 49.8682Z" fill="#4ECB71"/>
</svg>
