<svg width="470" height="132" viewBox="0 0 470 132" fill="none" xmlns="http://www.w3.org/2000/svg">
<rect x="8" y="12" width="440" height="108" rx="16" fill="#4ECB71"/>
<path d="M47.162 49.214H50.669V50.684H47.162V49.214ZM45.881 41.633H47.645V60.638H45.881V41.633ZM33.785 43.502H35.528V55.262H33.785V43.502ZM33.785 54.359H35.297C38.111 54.359 40.988 54.17 44.117 53.519L44.327 54.968C41.093 55.64 38.174 55.829 35.297 55.829H33.785V54.359ZM54.9934 47.345H67.8874V48.773H54.9934V47.345ZM52.6624 51.314H69.8824V52.742H52.6624V51.314ZM54.9934 42.347H56.7154V48.059H54.9934V42.347ZM54.8674 58.748H67.9924V60.176H54.8674V58.748ZM54.8674 54.632H56.5894V59.126H54.8674V54.632ZM78.1893 56.753H95.3883V58.202H78.1893V56.753ZM79.6803 43.544H93.7713V44.972H79.6803V43.544ZM79.7223 51.566H93.7503V52.994H79.7223V51.566ZM82.6413 44.867H84.3843V51.713H82.6413V44.867ZM89.1093 44.867H90.8313V51.713H89.1093V44.867ZM97.8017 52.49H115.022V53.918H97.8017V52.49ZM100.07 59.021H113.216V60.449H100.07V59.021ZM100.07 55.178H101.813V59.441H100.07V55.178ZM105.53 49.76H107.273V53.099H105.53V49.76ZM99.9857 42.263H112.796V46.967H101.75V49.529H100.028V45.686H111.095V43.628H99.9857V42.263ZM100.028 49.067H113.216V50.432H100.028V49.067ZM119.661 51.881H132.702V53.288H119.661V51.881ZM117.456 56.753H134.655V58.202H117.456V56.753ZM119.661 43.271H132.492V44.699H121.425V52.322H119.661V43.271ZM120.858 47.513H132.093V48.899H120.858V47.513ZM145.153 47.072H148.387V48.5H145.153V47.072ZM141.583 43.124C144.061 43.124 145.888 45.035 145.888 47.744C145.888 50.453 144.061 52.364 141.583 52.364C139.063 52.364 137.257 50.453 137.257 47.744C137.257 45.035 139.063 43.124 141.583 43.124ZM141.583 44.636C140.008 44.636 138.832 45.917 138.832 47.744C138.832 49.571 140.008 50.873 141.583 50.873C143.137 50.873 144.313 49.571 144.313 47.744C144.313 45.917 143.137 44.636 141.583 44.636ZM151.411 41.654H153.07V55.85H151.411V41.654ZM147.82 42.032H149.479V55.304H147.82V42.032ZM140.701 58.79H153.658V60.218H140.701V58.79ZM140.701 54.023H142.444V59.441H140.701V54.023ZM158.886 50.747H171.927V52.175H158.886V50.747ZM156.723 56.627H173.922V58.076H156.723V56.627ZM158.886 43.397H171.738V44.846H160.629V51.377H158.886V43.397ZM196.635 41.654H198.315V60.638H196.635V41.654ZM193.569 49.277H197.202V50.705H193.569V49.277ZM188.655 44.09H190.335C190.335 48.983 188.655 53.519 183.237 56.564L182.208 55.325C186.975 52.658 188.655 48.815 188.655 44.426V44.09ZM182.943 44.09H189.243V45.539H182.943V44.09ZM192.414 42.158H194.073V59.714H192.414V42.158ZM202.639 42.431H204.361V45.161H209.716V42.431H211.417V50.726H202.639V42.431ZM204.361 46.526V49.319H209.716V46.526H204.361ZM214.84 41.654H216.583V51.44H214.84V41.654ZM215.827 45.728H219.376V47.177H215.827V45.728ZM204.529 52.364H216.583V56.963H206.293V59.819H204.571V55.661H214.882V53.75H204.529V52.364ZM204.571 59.042H217.276V60.428H204.571V59.042ZM226.178 44.363H227.564V47.45C227.564 51.398 225.149 55.472 222.188 56.984L221.18 55.598C223.889 54.275 226.178 50.663 226.178 47.45V44.363ZM226.493 44.363H227.879V47.45C227.879 50.453 230.021 53.834 232.772 55.136L231.785 56.522C228.782 55.031 226.493 51.209 226.493 47.45V44.363ZM221.852 43.586H232.079V45.056H221.852V43.586ZM234.326 41.654H236.09V60.638H234.326V41.654ZM235.67 49.319H239.198V50.789H235.67V49.319ZM254.926 41.675H256.69V55.535H254.926V41.675ZM244.489 58.79H257.257V60.218H244.489V58.79ZM244.489 54.107H246.211V59.273H244.489V54.107ZM246.505 42.977C249.34 42.977 251.44 44.909 251.44 47.66C251.44 50.39 249.34 52.343 246.505 52.343C243.67 52.343 241.549 50.39 241.549 47.66C241.549 44.909 243.67 42.977 246.505 42.977ZM246.505 44.489C244.657 44.489 243.25 45.791 243.25 47.66C243.25 49.508 244.657 50.81 246.505 50.81C248.353 50.81 249.76 49.508 249.76 47.66C249.76 45.791 248.353 44.489 246.505 44.489ZM275.189 41.654H276.869V60.638H275.189V41.654ZM267.314 48.899H272.081V50.327H267.314V48.899ZM271.367 42.095H273.026V59.672H271.367V42.095ZM261.455 54.611H262.673C265.634 54.611 267.419 54.527 269.519 54.086L269.687 55.535C267.524 55.997 265.697 56.081 262.673 56.081H261.455V54.611ZM261.455 43.964H268.595V45.392H263.177V55.178H261.455V43.964ZM283.745 56.9119L283.634 57.7248C283.559 58.3214 283.432 58.9428 283.253 59.5891C283.079 60.2404 282.898 60.8445 282.709 61.4013C282.525 61.9581 282.373 62.4006 282.254 62.7287H280.673C280.738 62.4205 280.827 62.0028 280.941 61.4759C281.056 60.9538 281.168 60.3697 281.277 59.7234C281.386 59.0771 281.468 58.4183 281.523 57.7472L281.598 56.9119H283.745ZM293.227 42.872H294.865V45.854H298.918V42.872H300.577V51.713H293.227V42.872ZM294.865 47.24V50.306H298.918V47.24H294.865ZM306.709 41.675H308.368V53.057H306.709V41.675ZM303.643 46.589H307.234V48.038H303.643V46.589ZM302.635 42.011H304.294V52.952H302.635V42.011ZM295.642 54.191H308.368V60.638H306.646V55.619H295.642V54.191ZM320.084 47.072H323.318V48.5H320.084V47.072ZM316.514 43.124C318.992 43.124 320.819 45.035 320.819 47.744C320.819 50.453 318.992 52.364 316.514 52.364C313.994 52.364 312.188 50.453 312.188 47.744C312.188 45.035 313.994 43.124 316.514 43.124ZM316.514 44.636C314.939 44.636 313.763 45.917 313.763 47.744C313.763 49.571 314.939 50.873 316.514 50.873C318.068 50.873 319.244 49.571 319.244 47.744C319.244 45.917 318.068 44.636 316.514 44.636ZM326.342 41.654H328.001V55.85H326.342V41.654ZM322.751 42.032H324.41V55.304H322.751V42.032ZM315.632 58.79H328.589V60.218H315.632V58.79ZM315.632 54.023H317.375V59.441H315.632V54.023ZM333.817 50.747H346.858V52.175H333.817V50.747ZM331.654 56.627H348.853V58.076H331.654V56.627ZM333.817 43.397H346.669V44.846H335.56V51.377H333.817V43.397ZM359.302 42.893H371.167V44.3H359.302V42.893ZM357.16 51.041H374.317V52.469H357.16V51.041ZM364.825 51.986H366.568V60.659H364.825V51.986ZM370.348 42.893H372.049V44.531C372.049 46.505 372.049 48.731 371.335 51.944L369.613 51.713C370.348 48.647 370.348 46.442 370.348 44.531V42.893ZM389.645 41.654H391.388V60.638H389.645V41.654ZM390.968 49.445H394.496V50.915H390.968V49.445ZM376.688 44.678H387.881V46.106H376.688V44.678ZM382.358 47.681C385.046 47.681 386.978 49.487 386.978 52.049C386.978 54.611 385.046 56.417 382.358 56.417C379.691 56.417 377.738 54.611 377.738 52.049C377.738 49.487 379.691 47.681 382.358 47.681ZM382.358 49.13C380.636 49.13 379.397 50.327 379.397 52.049C379.397 53.75 380.636 54.968 382.358 54.968C384.08 54.968 385.319 53.75 385.319 52.049C385.319 50.327 384.08 49.13 382.358 49.13ZM381.455 41.885H383.198V45.329H381.455V41.885ZM410.244 41.654H411.987V60.638H410.244V41.654ZM404.679 43.691H406.401C406.401 49.193 403.923 54.002 397.581 57.11L396.657 55.703C402.138 53.057 404.679 49.025 404.679 43.985V43.691ZM397.518 43.691H405.435V45.119H397.518V43.691ZM45.881 71.633H47.645V90.638H45.881V71.633ZM47.162 79.34H50.669V80.789H47.162V79.34ZM41.03 73.691H42.731C42.731 79.088 40.253 83.96 34.121 87.047L33.155 85.703C38.405 83.036 41.03 78.983 41.03 73.964V73.691ZM34.037 73.691H41.933V75.119H34.037V73.691ZM72.353 71.654H74.117V83.141H72.353V71.654ZM61.853 84.149H74.117V90.386H61.853V84.149ZM72.395 85.556H63.554V88.979H72.395V85.556ZM58.829 73.67H70.358V75.077H58.829V73.67ZM64.583 76.001C67.376 76.001 69.224 77.324 69.224 79.403C69.224 81.482 67.376 82.763 64.583 82.763C61.811 82.763 59.963 81.482 59.963 79.403C59.963 77.324 61.811 76.001 64.583 76.001ZM64.583 77.345C62.798 77.345 61.601 78.122 61.601 79.403C61.601 80.663 62.798 81.44 64.583 81.44C66.389 81.44 67.565 80.663 67.565 79.403C67.565 78.122 66.389 77.345 64.583 77.345ZM63.722 71.486H65.465V74.426H63.722V71.486ZM78.1893 79.571H95.3463V80.999H78.1893V79.571ZM80.4573 76.631H93.3093V78.038H80.4573V76.631ZM80.4573 72.263H93.0993V73.691H82.1793V77.765H80.4573V72.263ZM80.2473 82.637H93.1413V87.11H82.0113V89.504H80.2893V85.808H91.4193V84.002H80.2473V82.637ZM80.2893 89.042H93.7083V90.428H80.2893V89.042ZM102.884 73.103C105.635 73.103 107.609 75.686 107.609 79.718C107.609 83.771 105.635 86.354 102.884 86.354C100.112 86.354 98.1587 83.771 98.1587 79.718C98.1587 75.686 100.112 73.103 102.884 73.103ZM102.884 74.678C101.057 74.678 99.8177 76.652 99.8177 79.718C99.8177 82.805 101.057 84.821 102.884 84.821C104.711 84.821 105.95 82.805 105.95 79.718C105.95 76.652 104.711 74.678 102.884 74.678ZM111.725 71.633H113.447V90.659H111.725V71.633ZM107.042 78.878H112.481V80.306H107.042V78.878ZM120.716 73.7273L120.523 84.6076H118.457L118.263 73.7273H120.716ZM119.493 89.1417C119.081 89.1417 118.728 88.9975 118.434 88.7092C118.141 88.4158 117.997 88.0629 118.002 87.6502C117.997 87.2425 118.141 86.8945 118.434 86.6062C118.728 86.3129 119.081 86.1662 119.493 86.1662C119.896 86.1662 120.244 86.3129 120.537 86.6062C120.831 86.8945 120.98 87.2425 120.985 87.6502C120.98 87.9237 120.908 88.1747 120.769 88.4034C120.634 88.6271 120.455 88.8061 120.232 88.9403C120.008 89.0746 119.762 89.1417 119.493 89.1417Z" fill="black"/>
<path d="M460.481 49.8682L450.015 55.8483C448.769 56.5605 448 57.8859 448 59.3213V61H441V37H448V38.6787C448 40.1141 448.769 41.4395 450.015 42.1517L460.481 48.1318C461.152 48.5157 461.152 49.4843 460.481 49.8682Z" fill="#4ECB71"/>
</svg>
